ply
format ascii 1.0
comment VCGLIB generated
element vertex 770
property float x
property float y
property float z
element face 1384
property list uchar int vertex_indices
end_header
0.436699 9.43 -0.161837 
3.47188 10.2507 -1.17304 
0.436699 8.05223 -2.84739 
3.51165 9.02875 -1.80794 
5.49767 10.0722 -3.02157 
0.436699 7.87071 -5.19992 
3.57818 8.61435 -6.89229 
5.20811 9.9506 -5.73025 
0.436698 7.52055 -8.72179 
3.19298 8.53329 -8.57426 
4.35889 10.1072 -8.49248 
0.436699 7.48811 -12.1798 
3.1282 8.78771 -12.0204 
4.29917 10.1381 -11.7805 
0.436699 8.05164 -14.41 
3.11836 9.26556 -13.1024 
4.40655 10.2766 -13.8381 
0.436699 10.0666 -18.1787 
3.05519 9.94718 -18.9139 
4.41461 10.0906 -17.9546 
0.436699 19.2085 -0.99992 
2.86327 18.2086 -1.18182 
3.91604 18.2235 -2.97305 
0.436699 19.6724 -3.18275 
2.23087 19.4677 -3.27429 
0.436699 19.52 -5.47249 
2.41389 19.2479 -5.45321 
3.91327 17.9081 -5.56482 
0.436699 18.6082 -7.92598 
2.41454 18.1231 -7.84957 
3.69844 16.8473 -7.82655 
0.436698 18.5845 -11.1746 
2.46413 17.9993 -11.0993 
3.811 16.6747 -11.1543 
0.436699 18.8117 -14.3928 
2.48557 18.3789 -14.1477 
3.7804 16.9282 -13.9043 
0.436699 17.719 -17.1934 
2.54287 17.4746 -16.9044 
3.73119 16.281 -16.426 
0.436699 10.7456 0.665002 
3.3501 13.3139 -0.673495 
5.3407 12.7646 -2.60911 
5.52928 12.7639 -5.89488 
4.85736 12.5545 -8.24544 
4.89383 12.435 -11.5427 
4.9956 12.3747 -13.8545 
4.24999 12.4135 -18.0595 
2.89853 12.4351 -19.0141 
0.436699 12.5007 -19.07 
3.83135 16.0417 -1.08852 
4.7349 15.8696 -2.66294 
5.08785 15.5316 -5.67744 
4.43901 15.0089 -7.92988 
4.65196 14.8938 -11.3256 
4.75526 14.8693 -13.7669 
3.97444 14.8166 -17.6241 
2.74703 14.8061 -18.5235 
0.436699 15.1863 -19.2739 
1.89436 11.575 0.210172 
1.84715 9.67623 -0.529075 
1.68952 8.22311 -2.89362 
1.62082 8.18494 -5.2626 
1.77766 7.79738 -8.67393 
1.74692 7.88891 -12.1258 
1.41925 8.3053 -14.4211 
1.25017 9.82442 -18.4519 
1.08732 12.5128 -19.3255 
1.08265 15.0378 -19.0992 
4.77503 6.60124 -14.4059 
3.33434 6.37251 -13.6704 
1.85114 6.28316 -14.8958 
2.36772 5.73838 -17.0619 
3.43489 5.86383 -17.4615 
4.60477 6.25964 -16.8259 
4.73282 5.75515 -14.5556 
3.42046 5.55486 -13.833 
1.97832 5.66622 -14.8627 
0.436699 9.14651 -16.418 
1.13821 8.91763 -16.4219 
1.85748 6.16451 -16.1928 
1.96785 5.65375 -16.1758 
3.63542 0.528588 -16.1748 
5.05044 6.52136 -15.7807 
5.20955 10.3409 -15.9725 
5.0171 12.3861 -16.0745 
4.55824 14.8104 -16.1219 
4.67964 1.78856 -15.1461 
3.70861 1.99288 -14.4638 
2.66112 1.78952 -14.9795 
2.49726 2.12076 -16.1122 
2.76229 2.28436 -16.9067 
5.40789 7.25569 -3.18832 
3.7908 7.18362 -2.32902 
2.10884 6.83016 -3.17182 
2.06309 6.82796 -5.42597 
3.73158 7.18362 -6.59926 
5.41644 7.27429 -5.67358 
5.258 5.28013 -3.22744 
3.90556 5.324 -2.55349 
2.5117 5.1775 -3.23943 
2.49096 4.70911 -5.31005 
3.94788 4.72495 -6.11293 
5.29528 4.72499 -5.09754 
5.21077 4.66505 -3.22614 
3.9657 4.6448 -2.60452 
2.6261 4.6133 -3.27781 
5.1005 1.62672 -3.30605 
4.03015 2.0422 -2.52946 
3.04129 1.79036 -3.29698 
2.85281 1.9867 -4.80826 
4.06425 2.08831 -5.43122 
5.13014 2.01426 -4.63923 
0.436699 19.4219 0.922961 
0.436699 11.6598 1.19575 
1.88664 12.3813 0.947083 
3.0812 14.037 0.626486 
3.43566 16.6857 0.561958 
2.53178 18.5227 0.632923 
1.67718 19.2216 2.89332 
0.436699 19.3609 2.93762 
0.436699 12.4107 2.00882 
3.49548 14.2162 1.79821 
3.70704 17.2288 2.12882 
2.74133 18.5147 2.39488 
5.34526 1.10947 -3.2687 
3.98533 0.896852 -0.734242 
2.71824 0.960672 -3.2929 
2.94353 1.07113 -4.55324 
4.1168 1.12993 -5.19877 
5.12136 1.18813 -4.4242 
5.36021 0.572901 -3.22256 
4.11399 0.403728 -3.22957 
2.83301 0.452003 -3.22587 
3.04414 0.467052 -4.29999 
4.11167 0.612709 -4.80271 
5.12065 0.626892 -4.20725 
5.11699 1.76494 -1.76238 
4.01467 2.08443 -1.65272 
2.87814 1.67332 -1.86943 
2.5986 0.912052 -1.94299 
2.70746 0.429293 -2.02983 
4.09847 0.381019 -1.96839 
5.3882 0.507057 -2.00139 
5.51556 1.02406 -1.95703 
5.06884 1.51773 -1.30395 
3.97255 1.7946 -0.995627 
2.95202 1.48821 -1.3307 
2.68851 0.865393 -1.24151 
2.8376 0.496058 -1.34177 
4.01268 0.502181 -0.998771 
5.29081 0.573823 -1.30412 
5.34219 0.93766 -1.16549 
1.03227 13.6188 -19.349 
0.436699 13.6509 -19.1808 
0.436699 13.8459 -19.9704 
0.926017 13.7612 -19.7841 
0.875645 13.4676 -19.3869 
0.436699 13.2251 -19.2932 
0.436699 12.6084 -20.1426 
0.809004 12.6205 -20.0066 
0.758632 12.5115 -19.6041 
0.436699 12.4712 -19.5574 
5.05052 1.29695 -15.2419 
3.80868 1.13222 -12.9256 
2.31307 1.21744 -15.1394 
2.42888 1.32914 -16.1156 
2.70341 1.42607 -16.8343 
4.96691 0.629753 -15.3131 
3.69112 0.481371 -15.2786 
2.52208 0.413822 -15.266 
2.53562 0.554015 -16.0781 
2.76911 0.766053 -16.759 
3.57737 0.679241 -17.0428 
4.51338 0.775371 -16.7784 
4.75871 0.674161 -16.2332 
4.89868 1.62181 -14.0607 
3.7664 2.01501 -13.7492 
2.745 1.7456 -13.864 
2.43971 1.198 -13.9335 
2.53668 0.419197 -14.1098 
3.76415 0.487571 -14.0511 
5.04294 0.591866 -14.2123 
5.12559 1.18724 -14.1784 
4.90016 1.45838 -13.6192 
3.81604 1.81302 -13.1377 
2.7361 1.5111 -13.4035 
2.56371 1.11772 -13.3701 
2.70807 0.507928 -13.5929 
3.80724 0.511874 -13.2273 
4.97555 0.576724 -13.6384 
5.01882 1.1314 -13.4891 
0.436699 14.7837 8.35324 
0.852268 14.8512 8.29789 
1.12099 14.8851 8.12555 
0.436699 14.8728 7.50705 
1.24613 14.7966 7.48931 
1.38999 14.8913 7.5018 
0.436699 14.9477 6.66603 
1.3317 14.8621 6.66603 
0.436699 15.8568 8.69794 
0.798398 15.7904 8.55623 
1.02256 15.6424 8.2748 
0.436699 16.3123 7.7622 
0.911653 16.2567 7.74909 
1.1866 15.9187 7.67638 
0.436699 16.783 7.00454 
1.00985 16.6854 6.98945 
1.39779 16.2595 6.92222 
0.436699 15.0927 8.45594 
0.798241 15.1102 8.39303 
1.13304 15.1473 8.14343 
1.37504 15.2315 7.56529 
1.60158 15.3432 6.73323 
0.436699 15.3975 8.59541 
0.772481 15.4047 8.53995 
1.1188 15.4389 8.20638 
1.31567 15.5795 7.61903 
1.54924 15.7976 6.84 
0.436699 14.8868 6.67837 
1.26952 14.8232 6.66047 
1.57263 14.8221 6.66026 
0.436699 14.8352 7.01863 
1.14398 14.7456 7.02744 
1.34097 14.654 6.99773 
0.436699 14.6651 7.79546 
0.825146 14.6259 7.65942 
1.10782 14.4765 7.45208 
0.436699 14.4437 8.07335 
0.751251 14.4514 7.99305 
0.976319 14.443 7.79725 
1.54791 14.4884 6.62271 
1.37329 14.4095 6.95107 
1.13702 14.3129 7.40168 
0.436699 14.1885 8.12539 
0.751251 14.1955 8.04509 
0.994409 14.2477 7.80735 
0.436699 13.871 7.96251 
0.767362 13.8898 7.87948 
0.960706 13.9781 7.65083 
0.436699 13.9174 7.38051 
0.804446 13.9727 7.36183 
1.07862 14.107 7.3604 
0.436699 13.8686 6.86579 
0.92853 13.9382 6.86731 
1.29705 14.1504 6.89594 
0.436699 17.317 6.37788 
1.11814 17.1363 6.38214 
0.436699 17.9843 5.83218 
1.36864 18.0081 5.86633 
0.436699 18.6519 5.18961 
1.55857 18.6128 5.25184 
0.436699 19.2499 4.01979 
1.73769 19.2709 3.99056 
2.15867 17.2156 5.61541 
2.50247 15.5904 5.24585 
2.50111 16.368 5.38857 
2.65092 17.7416 4.97019 
3.03529 15.7127 4.38728 
2.92886 16.7379 4.68148 
3.27796 18.2703 3.36873 
3.76263 15.8412 3.15441 
3.49471 17.1033 3.32251 
3.81073 15.8928 1.96862 
1.61639 16.5579 6.23094 
1.84457 16.0412 6.13161 
1.98341 15.4574 6.00351 
0.436699 13.8419 6.43206 
0.990969 13.92 6.43351 
1.45609 14.144 6.53369 
2.01534 14.7203 5.89311 
0.436699 13.7413 5.84647 
1.10036 13.8838 5.85359 
1.80775 14.1259 5.84108 
1.57588 14.9301 6.6766 
2.33679 14.6145 5.22892 
0.436699 13.458 5.25637 
1.20771 13.7012 5.28339 
1.96593 14.0147 5.27741 
2.7573 14.3768 4.25833 
0.436699 13.0432 4.15297 
1.24422 13.17 4.22796 
2.13557 13.617 4.25541 
3.39198 14.2668 2.95196 
0.436699 12.8721 2.75983 
1.34448 13.0467 2.7954 
2.19888 13.3927 2.85231 
1.90715 12.9803 1.92852 
5.016 6.00456 -15.8061 
4.69287 2.21794 -16.135 
4.8634 1.39039 -16.141 
4.43676 2.28422 -16.8549 
4.55233 1.46693 -16.8295 
3.61565 2.36572 -17.2509 
3.5699 1.45545 -17.2733 
3.43915 19.2529 2.80789 
2.62583 19.989 3.29126 
2.67669 20.0957 3.57654 
3.61792 19.2711 3.07801 
3.26061 19.9592 3.23635 
3.15036 19.8796 2.9837 
4.0407 2.535 -2.71542 
5.01676 2.35189 -3.37309 
2.95041 2.35302 -3.48217 
3.67083 2.50078 -14.5624 
4.64109 2.31 -15.2716 
2.68995 2.2061 -15.0816 
4.70132 0.685398 -13.0196 
4.72489 0.929737 -13.3293 
4.87325 1.07797 -13.2849 
4.73731 1.09798 -13.7055 
4.9279 1.3257 -13.6231 
4.57704 1.10152 -13.1701 
4.76977 1.20302 -13.1582 
4.55028 1.298 -13.5877 
4.72112 1.47583 -13.5548 
4.37188 0.669321 -12.8098 
4.30351 0.943258 -13.1273 
4.47753 1.16037 -13.0248 
4.20099 1.16204 -13.575 
4.43926 1.39369 -13.5309 
4.16082 1.12184 -12.9733 
4.34927 1.279 -12.8617 
4.03273 1.42942 -13.3884 
4.27738 1.63941 -13.3663 
3.85796 0.644454 -12.6837 
3.81653 1.12798 -13.0041 
3.95968 1.31809 -12.8715 
3.78755 1.4336 -13.3879 
3.96429 1.6403 -13.2808 
3.66897 1.25794 -12.8606 
3.80541 1.40073 -12.7523 
3.58821 1.54848 -13.2425 
3.78069 1.75403 -13.1702 
3.32802 0.667139 -12.8123 
3.31677 0.989252 -13.1479 
3.41821 1.21145 -13.0106 
3.32735 1.33197 -13.4597 
3.50416 1.45018 -13.322 
3.15617 1.10774 -13.0229 
3.28248 1.30881 -12.9161 
3.12187 1.43671 -13.3681 
3.27971 1.66625 -13.3029 
2.82392 0.597047 -12.9225 
2.81506 0.93371 -13.2064 
2.9321 1.10218 -13.1155 
2.81865 1.19737 -13.5181 
2.95636 1.37479 -13.3974 
2.66167 1.02126 -13.1459 
2.76754 1.19557 -13.0537 
2.63321 1.29221 -13.4664 
2.75183 1.53953 -13.4615 
5.32343 0.720326 -1.00787 
5.20692 0.950203 -1.25594 
5.36048 1.11551 -1.21546 
5.0529 1.17374 -1.51418 
5.21379 1.33641 -1.48649 
5.08957 1.06336 -1.07117 
5.23539 1.23832 -1.01088 
4.90154 1.34216 -1.33402 
5.06717 1.52482 -1.38737 
4.66238 0.682809 -0.645146 
4.66552 1.01978 -0.988326 
4.818 1.18258 -0.872784 
4.57966 1.2479 -1.44545 
4.78535 1.50708 -1.33472 
4.5087 1.07462 -0.826025 
4.63692 1.27594 -0.76601 
4.36305 1.48394 -1.33541 
4.55832 1.69298 -1.3024 
4.00223 0.734888 -0.493402 
4.00151 1.10059 -0.862092 
4.15114 1.27638 -0.702626 
4.00417 1.52873 -1.27158 
4.21342 1.66962 -1.15499 
3.83785 1.16714 -0.710081 
3.96048 1.37409 -0.640028 
3.79114 1.58451 -1.15252 
3.98283 1.85987 -1.16217 
3.37655 0.709154 -0.705698 
3.39188 0.993288 -1.13934 
3.56457 1.18047 -0.888402 
3.51308 1.34357 -1.43919 
3.66211 1.5202 -1.27318 
3.18064 1.08165 -0.96991 
3.29575 1.30354 -0.801304 
3.29468 1.44265 -1.38834 
3.44006 1.67026 -1.30514 
2.81878 0.6404 -0.972598 
2.91544 0.917933 -1.27106 
2.98915 1.11308 -1.09904 
3.04009 1.19022 -1.58726 
3.12665 1.35619 -1.4269 
2.68929 1.02119 -1.25317 
2.74814 1.22627 -1.10231 
2.84913 1.27969 -1.60626 
2.93612 1.44297 -1.48259 
-2.59848 10.2507 -1.17304 
-2.63826 9.02875 -1.80794 
-4.62427 10.0722 -3.02157 
-2.70479 8.61435 -6.89229 
-4.33472 9.9506 -5.74302 
-2.31958 8.5925 -8.57426 
-3.48549 10.1939 -8.49248 
-2.25481 8.78771 -12.0204 
-3.42577 10.2247 -11.7805 
-2.24497 9.26556 -13.1024 
-3.53315 10.2766 -13.8381 
-2.18179 9.94718 -18.9139 
-3.54122 10.0906 -17.9546 
-1.98987 18.2086 -1.18182 
-3.04265 18.2235 -2.97305 
-1.35748 19.4677 -3.27429 
-1.54049 19.2479 -5.45321 
-3.03987 17.9081 -5.56482 
-1.54114 18.1231 -7.84957 
-2.82504 16.8473 -7.82655 
-1.59074 17.9993 -11.0993 
-2.9376 16.763 -11.1543 
-1.61217 18.3789 -14.1477 
-2.907 16.9282 -13.9043 
-1.66947 17.4746 -16.9044 
-2.85779 16.281 -16.426 
-2.4767 13.3139 -0.673495 
-4.46731 12.7646 -2.60911 
-4.65589 12.7639 -5.89488 
-3.98396 12.5545 -8.24544 
-4.02043 12.435 -11.5427 
-4.1222 12.3747 -13.8545 
-3.37659 12.4135 -18.0595 
-2.02513 12.4351 -19.0141 
-2.95796 16.0417 -1.08852 
-3.8615 15.8696 -2.66294 
-4.21446 15.5316 -5.67744 
-3.56561 15.0089 -7.92988 
-3.77856 14.8938 -11.3256 
-3.88186 14.8693 -13.7669 
-3.10104 14.6616 -17.6241 
-1.87363 14.8061 -18.5235 
-1.02096 11.575 0.210172 
-0.97375 9.67623 -0.529075 
-0.87164 8.31338 -2.89282 
-0.802937 8.11738 -5.26246 
-0.90426 7.79738 -8.67393 
-0.873523 7.88891 -12.1258 
-0.545857 8.3053 -14.4211 
-0.376778 9.82442 -18.4519 
-0.213926 12.5128 -19.3255 
-0.20925 15.0378 -19.0992 
-3.90163 6.60124 -14.4059 
-2.46094 6.37251 -13.6704 
-0.974288 6.28309 -14.8958 
-1.49432 5.73838 -17.0619 
-2.56149 5.86383 -17.4615 
-3.73138 6.25964 -16.8259 
-3.85943 5.75515 -14.5556 
-2.54706 5.55486 -13.833 
-1.10492 5.66622 -14.8627 
-0.264812 8.91763 -16.4219 
-0.962899 6.16451 -16.1928 
-1.09445 5.65375 -16.1758 
-2.76202 0.528588 -16.1748 
-4.17704 6.52136 -15.7807 
-4.33616 10.3409 -15.9725 
-4.14371 12.3861 -16.0745 
-3.68484 14.8104 -16.1219 
-3.80625 1.78856 -15.2129 
-2.83522 1.99288 -14.4638 
-1.78772 1.78952 -14.9795 
-1.62387 2.12076 -16.1122 
-1.88889 2.28436 -16.9067 
-4.53449 7.25569 -3.18832 
-2.9174 7.18362 -2.32902 
-1.27832 6.99212 -3.17182 
-1.23257 6.98966 -5.42607 
-2.85818 7.18362 -6.59926 
-4.54304 7.27429 -5.67358 
-4.44853 5.28013 -3.22744 
-3.12656 5.324 -2.55349 
-1.65721 5.1775 -3.23943 
-1.63647 4.70911 -5.31005 
-3.13842 4.72495 -6.11293 
-4.48582 4.72499 -5.09754 
-4.4013 4.66505 -3.22614 
-3.1867 4.6448 -2.60452 
-1.77161 4.6133 -3.27781 
-4.29912 1.62672 -3.30605 
-3.22877 2.0422 -2.52946 
-2.23991 1.79036 -3.29698 
-2.07023 1.9867 -4.80826 
-3.26287 2.08831 -5.43122 
-4.32875 2.01426 -4.63923 
-1.01325 12.3813 0.947083 
-2.2078 14.037 0.626486 
-2.56227 16.6857 0.561958 
-1.65838 18.5227 0.632923 
-0.803779 19.2216 2.89332 
-2.62208 14.2162 1.79821 
-2.83364 17.2288 2.12882 
-1.86793 18.5147 2.39488 
-4.54388 1.10947 -3.2687 
-3.18395 0.896852 -0.734242 
-1.91685 0.960672 -3.2929 
-2.14215 1.07113 -4.55324 
-3.31542 1.12993 -5.19877 
-4.31997 1.18813 -4.4242 
-4.55883 0.572901 -3.22256 
-3.31261 0.403728 -3.22957 
-2.03162 0.452003 -3.22587 
-2.24275 0.467052 -4.29999 
-3.31029 0.612709 -4.80271 
-4.31927 0.626892 -4.20725 
-4.31561 1.76494 -1.76238 
-3.21329 2.08443 -1.65272 
-2.07676 1.67332 -1.86943 
-1.79722 0.912052 -1.94299 
-1.90608 0.429293 -2.02983 
-3.29709 0.381019 -1.96839 
-4.58682 0.507057 -2.00139 
-4.71418 1.02406 -1.95703 
-4.26746 1.51773 -1.30395 
-3.17116 1.7946 -0.995627 
-2.15064 1.48821 -1.3307 
-1.88713 0.865393 -1.24151 
-2.03622 0.496058 -1.34177 
-3.2113 0.502181 -0.998771 
-4.48943 0.573823 -1.30412 
-4.5408 0.93766 -1.16549 
-0.158878 13.6188 -19.349 
-0.05262 13.7612 -19.7841 
-0.002248 13.4676 -19.3869 
0.064393 12.6205 -20.0066 
0.114765 12.5115 -19.6041 
-4.17712 1.29695 -15.2419 
-2.93529 1.13222 -12.9256 
-1.43967 1.21744 -15.1394 
-1.55548 1.32914 -16.1156 
-1.83001 1.42607 -16.8343 
-4.09351 0.629753 -15.3131 
-2.81773 0.481371 -15.2786 
-1.64868 0.413822 -15.266 
-1.66222 0.554015 -16.0781 
-1.89571 0.766053 -16.759 
-2.70398 0.679241 -17.0428 
-3.63999 0.775371 -16.7784 
-3.88531 0.674161 -16.2332 
-4.02528 1.62181 -14.0607 
-2.89301 2.01501 -13.7492 
-1.87161 1.7456 -13.864 
-1.56631 1.198 -13.9335 
-1.66328 0.419197 -14.1098 
-2.89076 0.487571 -14.0511 
-4.16954 0.591866 -14.2123 
-4.25219 1.18724 -14.1784 
-4.02677 1.45838 -13.6192 
-2.94264 1.81302 -13.1377 
-1.8627 1.5111 -13.4035 
-1.69031 1.11772 -13.3701 
-1.83467 0.507928 -13.5929 
-2.93384 0.511874 -13.2273 
-4.10216 0.576724 -13.6384 
-4.14542 1.1314 -13.4891 
0.021129 14.8512 8.29789 
-0.247593 14.8851 8.12555 
-0.372733 14.7966 7.48931 
-0.516591 14.8913 7.5018 
-0.458307 14.8621 6.66603 
0.074999 15.7904 8.55623 
-0.14916 15.6424 8.2748 
-0.038256 16.2567 7.74909 
-0.313207 15.9187 7.67638 
-0.136456 16.6854 6.98945 
-0.524395 16.2595 6.92222 
0.075156 15.1102 8.39303 
-0.259645 15.1473 8.14343 
-0.501647 15.2315 7.56529 
-0.72818 15.3432 6.73323 
0.100917 15.4047 8.53995 
-0.245404 15.4389 8.20638 
-0.442276 15.5795 7.61903 
-0.675848 15.7976 6.84 
-0.396125 14.8232 6.66047 
-0.699234 14.793 6.66026 
-0.270586 14.7456 7.02744 
-0.467569 14.654 6.99773 
0.048251 14.6259 7.65942 
-0.234422 14.4765 7.45208 
0.122146 14.4514 7.99305 
-0.102922 14.443 7.79725 
-0.67451 14.4884 6.62271 
-0.49989 14.4095 6.95107 
-0.263628 14.3129 7.40168 
0.122146 14.1955 8.04509 
-0.121012 14.2477 7.80735 
0.106036 13.8898 7.87948 
-0.087309 13.9781 7.65083 
0.068951 13.9727 7.36183 
-0.20522 14.107 7.3604 
-0.055133 13.9382 6.86731 
-0.423655 14.1504 6.89594 
-0.244744 17.1363 6.38214 
-0.495246 18.0081 5.86633 
-0.685175 18.6128 5.25184 
-0.864298 19.2709 3.99056 
-1.28527 17.3031 5.61541 
-1.62908 15.5904 5.24585 
-1.62772 16.368 5.38857 
-1.77753 17.7416 4.97019 
-2.16189 15.7127 4.38728 
-2.05547 16.7379 4.68148 
-2.40456 18.2703 3.36873 
-2.88923 15.8412 3.15441 
-2.62131 17.1033 3.32251 
-2.93733 15.8928 1.96862 
-0.742995 16.5579 6.23094 
-0.97117 16.0412 6.13161 
-1.11001 15.4574 6.00351 
-0.117572 13.92 6.43351 
-0.582695 14.144 6.53369 
-1.14195 14.7412 5.92902 
-0.226959 13.8838 5.85359 
-0.934355 14.1419 5.87447 
-0.702483 14.9301 6.6766 
-1.46339 14.6145 5.22892 
-0.334308 13.7012 5.28339 
-1.09253 14.0147 5.27741 
-1.88391 14.3768 4.25833 
-0.370824 13.17 4.22796 
-1.26217 13.617 4.25541 
-2.51859 14.2668 2.95196 
-0.471086 13.0467 2.7954 
-1.32548 13.3927 2.85231 
-1.03375 12.9803 1.92852 
-4.14261 6.00456 -15.8061 
-3.81947 2.21794 -16.135 
-3.99 1.39039 -16.141 
-3.56336 2.28422 -16.8549 
-3.67893 1.46693 -16.8295 
-2.74225 2.36572 -17.2509 
-2.69651 1.45545 -17.2733 
-2.56575 19.2529 2.80789 
-1.75243 19.989 3.29126 
-1.80329 20.0957 3.57654 
-2.74452 19.2711 3.07801 
-2.38721 19.9592 3.23635 
-2.27696 19.8796 2.9837 
-3.23932 2.535 -2.71542 
-4.21538 2.35189 -3.37309 
-2.16783 2.35302 -3.48217 
-2.79743 2.50078 -14.5624 
-3.76769 2.31 -15.2716 
-1.81655 2.2061 -15.0816 
-3.82792 0.685398 -13.0196 
-3.85149 0.929737 -13.3293 
-3.99985 1.07797 -13.2849 
-3.86391 1.09798 -13.7055 
-4.0545 1.3257 -13.6231 
-3.70365 1.10152 -13.1701 
-3.89637 1.20302 -13.1582 
-3.67689 1.298 -13.5877 
-3.84772 1.47583 -13.5548 
-3.49849 0.669321 -12.8098 
-3.43011 0.943258 -13.1273 
-3.60414 1.16037 -13.0248 
-3.3276 1.16204 -13.575 
-3.56586 1.39369 -13.5309 
-3.28742 1.12184 -12.9733 
-3.47587 1.279 -12.8617 
-3.15934 1.42942 -13.3884 
-3.40398 1.63941 -13.3663 
-2.98456 0.644454 -12.6837 
-2.94313 1.12798 -13.0041 
-3.08629 1.31809 -12.8715 
-2.91415 1.4336 -13.3879 
-3.09089 1.6403 -13.2808 
-2.79558 1.25794 -12.8606 
-2.93201 1.40073 -12.7523 
-2.71481 1.54848 -13.2425 
-2.90729 1.75403 -13.1702 
-2.45462 0.667139 -12.8123 
-2.44338 0.989252 -13.1479 
-2.54481 1.21145 -13.0106 
-2.45395 1.33197 -13.4597 
-2.63076 1.45018 -13.322 
-2.28277 1.10774 -13.0229 
-2.40908 1.30881 -12.9161 
-2.24847 1.43671 -13.3681 
-2.40632 1.66625 -13.3029 
-1.92686 0.661334 -12.9217 
-1.94116 0.904816 -13.2057 
-2.05477 1.07329 -13.1106 
-1.95621 1.16847 -13.5171 
-2.08939 1.3459 -13.3914 
-1.78565 0.992361 -13.1509 
-1.88805 1.16667 -13.0549 
-1.76899 1.26331 -13.4722 
-1.88735 1.51064 -13.4629 
-4.52206 0.689093 -1.00787 
-4.40553 0.918969 -1.25594 
-4.5591 1.08428 -1.21546 
-4.25151 1.14251 -1.51418 
-4.41241 1.30518 -1.48649 
-4.28819 1.03212 -1.07117 
-4.43401 1.20709 -1.01088 
-4.10016 1.31093 -1.33402 
-4.26579 1.49359 -1.38737 
-3.861 0.682809 -0.645146 
-3.86414 1.01978 -0.988326 
-4.01661 1.18258 -0.872784 
-3.77828 1.2479 -1.44545 
-3.98397 1.50708 -1.33472 
-3.70732 1.07462 -0.826025 
-3.83554 1.27594 -0.76601 
-3.56167 1.48394 -1.33541 
-3.75693 1.71891 -1.3024 
-3.20085 0.734888 -0.493402 
-3.20013 1.10059 -0.862092 
-3.34976 1.27638 -0.702626 
-3.20279 1.52873 -1.27158 
-3.41204 1.66962 -1.15499 
-3.03647 1.16714 -0.710081 
-3.1591 1.37409 -0.640028 
-2.98976 1.58451 -1.15252 
-3.18144 1.85987 -1.16217 
-2.54426 0.697656 -0.705698 
-2.55959 0.98179 -1.13934 
-2.73228 1.16897 -0.888402 
-2.68079 1.33207 -1.43919 
-2.82981 1.5087 -1.27318 
-2.34835 1.07015 -0.96991 
-2.46345 1.29205 -0.801304 
-2.46239 1.43115 -1.38834 
-2.60777 1.65876 -1.30514 
-2.02574 0.689384 -0.972598 
-2.1224 0.966918 -1.27106 
-2.19611 1.16206 -1.09904 
-2.24705 1.2392 -1.58726 
-2.33361 1.40517 -1.4269 
-1.89625 1.07017 -1.25317 
-1.9551 1.27525 -1.10231 
-2.05609 1.32867 -1.60626 
-2.14308 1.49195 -1.48259 
0.439375 14.3867 7.98881 
-0.000322 14.4262 7.79696 
-0.30173 14.5602 7.18322 
-0.67696 14.6926 6.51868 
0.439375 14.8943 8.09458 
-0.000322 14.9338 7.90273 
-0.30173 15.0678 7.28899 
-0.67696 15.2003 6.62445 
0.884279 14.4281 7.77827 
1.07539 14.5413 7.3816 
1.51023 14.6947 6.49718 
0.884279 14.9357 7.88404 
1.07539 15.049 7.48737 
1.51023 15.2023 6.60295 
0.439375 15.0039 8.20435 
-0.023857 15.0183 8.01881 
-0.354767 15.0583 7.3289 
-0.688137 15.1143 6.65361 
0.439375 14.4868 8.166 
-0.023857 14.5012 7.98046 
-0.371924 14.5427 7.37418 
-0.626235 14.5978 6.64698 
0.962066 15.0212 7.93731 
1.16734 15.0217 7.52479 
1.47028 15.1183 6.63238 
0.962066 14.504 7.89896 
1.16734 14.5046 7.48644 
1.47028 14.6011 6.59404 
3 1 61 3 
3 61 1 60 
3 1 3 4 
3 134 132 133 
3 132 134 135 
3 132 136 131 
3 136 132 135 
3 63 9 6 
3 6 62 63 
3 7 6 10 
3 9 10 6 
3 63 64 9 
3 12 9 64 
3 13 9 12 
3 9 13 10 
3 65 15 12 
3 12 64 65 
3 13 15 16 
3 15 13 12 
3 82 169 170 
3 170 171 82 
3 82 175 168 
3 168 169 82 
3 24 21 22 
3 24 23 20 
3 20 21 24 
3 23 24 26 
3 26 25 23 
3 24 22 27 
3 27 26 24 
3 28 26 29 
3 26 28 25 
3 29 27 30 
3 27 29 26 
3 31 29 32 
3 29 31 28 
3 29 30 33 
3 33 32 29 
3 31 32 35 
3 35 34 31 
3 35 32 33 
3 33 36 35 
3 38 34 35 
3 34 38 37 
3 39 35 36 
3 35 39 38 
3 1 41 59 
3 59 60 1 
3 1 4 42 
3 42 41 1 
3 51 41 42 
3 41 51 50 
3 21 50 22 
3 51 22 50 
3 4 7 43 
3 43 42 4 
3 7 10 44 
3 44 43 7 
3 10 13 45 
3 45 44 10 
3 45 13 16 
3 16 46 45 
3 16 84 85 
3 85 46 16 
3 42 43 52 
3 52 51 42 
3 43 44 53 
3 53 52 43 
3 53 45 54 
3 45 53 44 
3 45 46 55 
3 55 54 45 
3 85 86 55 
3 55 46 85 
3 22 52 27 
3 52 22 51 
3 52 53 30 
3 30 27 52 
3 30 53 33 
3 54 33 53 
3 33 55 36 
3 55 33 54 
3 36 86 39 
3 86 36 55 
3 19 18 48 
3 48 47 19 
3 18 66 67 
3 67 48 18 
3 47 48 57 
3 57 56 47 
3 153 68 57 
3 48 153 57 
3 48 67 153 
3 38 56 57 
3 56 38 39 
3 57 68 38 
3 37 38 68 
3 40 0 60 
3 60 59 40 
3 0 2 61 
3 61 60 0 
3 5 62 61 
3 61 2 5 
3 8 63 5 
3 62 5 63 
3 63 8 11 
3 11 64 63 
3 11 14 65 
3 65 64 11 
3 65 14 79 
3 78 79 14 
3 17 49 67 
3 67 66 17 
3 159 160 161 
3 161 162 159 
3 16 15 70 
3 70 69 16 
3 70 65 71 
3 65 70 15 
3 71 79 80 
3 79 71 65 
3 18 73 66 
3 72 66 73 
3 18 19 74 
3 74 73 18 
3 84 16 69 
3 69 83 84 
3 69 70 76 
3 76 75 69 
3 70 71 77 
3 77 76 70 
3 71 80 81 
3 81 77 71 
3 83 75 288 
3 75 83 69 
3 79 78 66 
3 17 66 78 
3 72 80 66 
3 79 66 80 
3 80 72 81 
3 171 173 82 
3 173 171 172 
3 175 173 174 
3 173 175 82 
3 288 74 83 
3 83 19 84 
3 19 83 74 
3 47 84 19 
3 84 47 85 
3 85 56 86 
3 56 85 47 
3 86 56 39 
3 75 76 304 
3 304 305 75 
3 304 306 88 
3 89 88 306 
3 90 89 306 
3 91 90 81 
3 81 72 91 
3 293 72 73 
3 72 293 91 
3 4 3 93 
3 93 92 4 
3 3 61 94 
3 94 93 3 
3 61 95 94 
3 95 61 62 
3 95 6 96 
3 6 95 62 
3 6 97 96 
3 97 6 7 
3 97 7 4 
3 4 92 97 
3 92 93 99 
3 99 98 92 
3 93 94 100 
3 100 99 93 
3 94 101 100 
3 101 94 95 
3 101 95 102 
3 96 102 95 
3 102 97 103 
3 97 102 96 
3 97 92 98 
3 98 103 97 
3 98 99 105 
3 105 104 98 
3 99 100 106 
3 106 105 99 
3 101 106 100 
3 103 98 104 
3 302 104 301 
3 105 301 104 
3 303 109 108 
3 108 301 303 
3 110 109 303 
3 110 101 111 
3 102 111 101 
3 102 103 112 
3 112 111 102 
3 104 302 112 
3 112 103 104 
3 114 59 115 
3 59 114 40 
3 115 41 116 
3 41 115 59 
3 116 41 50 
3 50 117 116 
3 117 21 118 
3 21 117 50 
3 118 20 113 
3 20 118 21 
3 113 120 119 
3 121 115 287 
3 115 121 114 
3 115 116 122 
3 122 287 115 
3 117 123 263 
3 123 118 124 
3 118 123 117 
3 118 113 119 
3 119 124 118 
3 145 146 126 
3 126 152 145 
3 126 147 148 
3 147 126 146 
3 109 128 127 
3 128 109 110 
3 128 110 129 
3 111 129 110 
3 129 112 130 
3 112 129 111 
3 125 130 107 
3 112 107 130 
3 151 126 150 
3 126 151 152 
3 126 148 149 
3 149 150 126 
3 133 128 134 
3 128 133 127 
3 134 129 135 
3 129 134 128 
3 129 130 136 
3 136 135 129 
3 130 125 131 
3 131 136 130 
3 137 108 138 
3 108 137 107 
3 108 109 139 
3 139 138 108 
3 109 127 140 
3 140 139 109 
3 127 133 141 
3 141 140 127 
3 141 132 142 
3 132 141 133 
3 132 131 143 
3 143 142 132 
3 131 125 144 
3 144 143 131 
3 144 125 137 
3 107 137 125 
3 145 138 146 
3 138 145 137 
3 138 139 147 
3 147 146 138 
3 140 147 139 
3 147 140 148 
3 148 141 149 
3 141 148 140 
3 149 142 150 
3 142 149 141 
3 142 143 151 
3 151 150 142 
3 151 144 152 
3 144 151 143 
3 144 137 145 
3 145 152 144 
3 67 49 154 
3 154 153 67 
3 155 58 156 
3 68 156 58 
3 68 153 157 
3 157 156 68 
3 153 154 158 
3 158 157 153 
3 159 155 160 
3 156 160 155 
3 156 157 161 
3 161 160 156 
3 157 158 162 
3 162 161 157 
3 164 191 185 
3 184 185 191 
3 164 186 187 
3 186 164 185 
3 165 89 90 
3 90 166 165 
3 90 91 167 
3 167 166 90 
3 167 293 294 
3 293 167 91 
3 191 164 189 
3 189 190 191 
3 189 187 188 
3 187 189 164 
3 165 166 171 
3 171 170 165 
3 166 167 172 
3 172 171 166 
3 172 167 294 
3 294 173 172 
3 294 292 174 
3 174 173 294 
3 292 290 175 
3 175 174 292 
3 290 163 168 
3 168 175 290 
3 176 88 177 
3 88 176 87 
3 88 89 178 
3 178 177 88 
3 178 89 179 
3 165 179 89 
3 165 170 180 
3 180 179 165 
3 170 169 181 
3 181 180 170 
3 181 168 182 
3 168 181 169 
3 168 163 183 
3 183 182 168 
3 183 163 176 
3 87 176 163 
3 184 176 177 
3 177 185 184 
3 185 177 178 
3 178 186 185 
3 186 179 187 
3 179 186 178 
3 188 187 180 
3 179 180 187 
3 188 180 181 
3 181 189 188 
3 181 182 190 
3 190 189 181 
3 190 183 191 
3 183 190 182 
3 183 176 184 
3 184 191 183 
3 192 195 196 
3 196 193 192 
3 194 196 197 
3 196 194 193 
3 195 198 199 
3 199 196 195 
3 197 196 274 
3 199 274 196 
3 200 201 204 
3 204 203 200 
3 201 202 205 
3 205 204 201 
3 203 204 207 
3 207 206 203 
3 204 205 208 
3 208 207 204 
3 192 193 210 
3 210 209 192 
3 193 194 211 
3 211 210 193 
3 209 210 215 
3 215 214 209 
3 210 211 216 
3 216 215 210 
3 200 215 201 
3 215 200 214 
3 202 215 216 
3 215 202 201 
3 194 212 211 
3 212 194 197 
3 197 274 213 
3 213 212 197 
3 216 212 217 
3 212 216 211 
3 212 213 218 
3 218 217 212 
3 202 217 205 
3 217 202 216 
3 205 218 208 
3 218 205 217 
3 199 198 219 
3 219 220 199 
3 221 274 199 
3 199 220 221 
3 220 219 222 
3 222 223 220 
3 221 220 223 
3 223 224 221 
3 226 222 225 
3 222 226 223 
3 224 223 226 
3 226 227 224 
3 226 225 228 
3 228 229 226 
3 230 226 229 
3 226 230 227 
3 221 224 232 
3 232 231 221 
3 224 227 232 
3 233 232 227 
3 227 230 236 
3 236 233 227 
3 229 228 234 
3 234 235 229 
3 230 229 235 
3 235 236 230 
3 245 231 232 
3 231 245 269 
3 245 233 242 
3 233 245 232 
3 242 233 239 
3 236 239 233 
3 235 234 237 
3 237 238 235 
3 236 235 238 
3 238 239 236 
3 238 237 240 
3 240 241 238 
3 239 238 241 
3 241 242 239 
3 241 240 243 
3 243 244 241 
3 242 241 244 
3 244 245 242 
3 206 207 247 
3 247 246 206 
3 207 208 264 
3 264 247 207 
3 246 247 249 
3 249 248 246 
3 247 264 254 
3 254 249 247 
3 248 249 251 
3 251 250 248 
3 249 254 257 
3 257 251 249 
3 250 251 253 
3 253 252 250 
3 253 251 260 
3 257 260 251 
3 252 253 119 
3 119 120 252 
3 297 299 296 
3 300 296 299 
3 266 256 265 
3 256 266 255 
3 264 256 254 
3 256 264 265 
3 256 255 258 
3 258 259 256 
3 257 256 259 
3 256 257 254 
3 262 259 261 
3 258 261 259 
3 257 259 262 
3 262 260 257 
3 123 261 263 
3 261 123 262 
3 124 260 123 
3 262 123 260 
3 264 208 218 
3 218 265 264 
3 218 213 266 
3 266 265 218 
3 244 243 267 
3 267 268 244 
3 245 244 268 
3 268 269 245 
3 213 274 270 
3 270 266 213 
3 231 269 273 
3 273 270 231 
3 268 267 271 
3 271 272 268 
3 269 268 272 
3 272 273 269 
3 270 275 255 
3 255 266 270 
3 270 273 278 
3 278 275 270 
3 272 271 276 
3 276 277 272 
3 273 272 277 
3 277 278 273 
3 275 258 255 
3 258 275 279 
3 279 275 278 
3 278 282 279 
3 281 276 280 
3 276 281 277 
3 282 277 281 
3 277 282 278 
3 279 261 258 
3 261 279 283 
3 283 282 286 
3 282 283 279 
3 285 281 280 
3 280 284 285 
3 286 281 285 
3 281 286 282 
3 283 263 261 
3 263 283 122 
3 122 286 287 
3 286 122 283 
3 285 284 121 
3 121 287 285 
3 286 285 287 
3 305 289 288 
3 288 75 305 
3 290 87 163 
3 87 290 289 
3 74 288 289 
3 289 291 74 
3 289 290 292 
3 292 291 289 
3 291 73 74 
3 73 291 293 
3 293 292 294 
3 292 293 291 
3 68 58 37 
3 124 119 296 
3 124 296 300 
3 124 300 295 
3 296 253 297 
3 253 296 119 
3 253 260 298 
3 253 298 299 
3 253 299 297 
3 260 124 295 
3 295 298 260 
3 299 295 300 
3 295 299 298 
3 221 231 270 
3 270 274 221 
3 117 263 116 
3 122 116 263 
3 108 107 302 
3 302 301 108 
3 302 107 112 
3 301 106 303 
3 106 301 105 
3 106 101 110 
3 110 303 106 
3 305 88 87 
3 88 305 304 
3 305 87 289 
3 76 77 306 
3 306 304 76 
3 90 306 77 
3 77 81 90 
3 308 309 307 
3 308 310 311 
3 308 311 309 
3 307 313 312 
3 312 313 315 
3 312 315 314 
3 307 309 313 
3 309 311 315 
3 309 315 313 
3 310 308 312 
3 310 312 314 
3 308 307 312 
3 317 318 316 
3 317 319 320 
3 317 320 318 
3 316 322 321 
3 321 322 324 
3 321 324 323 
3 316 318 322 
3 318 320 324 
3 318 324 322 
3 319 317 321 
3 319 321 323 
3 317 316 321 
3 326 327 325 
3 326 328 329 
3 326 329 327 
3 325 331 330 
3 330 331 333 
3 330 333 332 
3 325 327 331 
3 327 329 333 
3 327 333 331 
3 328 326 330 
3 328 330 332 
3 326 325 330 
3 335 336 334 
3 335 337 338 
3 335 338 336 
3 334 340 339 
3 339 340 342 
3 339 342 341 
3 334 336 340 
3 336 338 342 
3 336 342 340 
3 337 335 339 
3 337 339 341 
3 335 334 339 
3 344 345 343 
3 344 346 347 
3 344 347 345 
3 343 349 348 
3 348 349 351 
3 348 351 350 
3 343 345 349 
3 345 347 351 
3 345 351 349 
3 346 344 348 
3 346 348 350 
3 344 343 348 
3 353 354 352 
3 353 355 356 
3 353 356 354 
3 352 358 357 
3 357 358 360 
3 357 360 359 
3 352 354 358 
3 354 356 360 
3 354 360 358 
3 355 353 357 
3 355 357 359 
3 353 352 357 
3 362 363 361 
3 362 364 365 
3 362 365 363 
3 361 367 366 
3 366 367 369 
3 366 369 368 
3 361 363 367 
3 363 365 369 
3 363 369 367 
3 364 362 366 
3 364 366 368 
3 362 361 366 
3 371 372 370 
3 371 373 374 
3 371 374 372 
3 370 376 375 
3 375 376 378 
3 375 378 377 
3 370 372 376 
3 372 374 378 
3 372 378 376 
3 373 371 375 
3 373 375 377 
3 371 370 375 
3 380 381 379 
3 380 382 383 
3 380 383 381 
3 379 385 384 
3 384 385 387 
3 384 387 386 
3 379 381 385 
3 381 383 387 
3 381 387 385 
3 382 380 384 
3 382 384 386 
3 380 379 384 
3 389 390 388 
3 389 391 392 
3 389 392 390 
3 388 394 393 
3 393 394 396 
3 393 396 395 
3 388 390 394 
3 390 392 396 
3 390 396 394 
3 391 389 393 
3 391 393 395 
3 389 388 393 
3 397 398 441 
3 441 440 397 
3 397 399 398 
3 509 508 507 
3 507 510 509 
3 507 506 511 
3 511 510 507 
3 443 400 402 
3 400 443 442 
3 401 403 400 
3 402 400 403 
3 443 402 444 
3 404 444 402 
3 405 404 402 
3 402 403 405 
3 445 404 406 
3 404 445 444 
3 405 407 406 
3 406 404 405 
3 461 540 539 
3 540 461 541 
3 461 538 545 
3 538 461 539 
3 412 411 410 
3 412 20 23 
3 20 412 410 
3 23 413 412 
3 413 23 25 
3 412 414 411 
3 414 412 413 
3 28 415 413 
3 413 25 28 
3 415 416 414 
3 414 413 415 
3 31 417 415 
3 415 28 31 
3 415 418 416 
3 418 415 417 
3 31 419 417 
3 419 31 34 
3 419 418 417 
3 418 419 420 
3 421 419 34 
3 34 37 421 
3 422 420 419 
3 419 421 422 
3 397 439 423 
3 439 397 440 
3 397 424 399 
3 424 397 423 
3 432 424 423 
3 423 431 432 
3 410 411 431 
3 432 431 411 
3 399 425 401 
3 425 399 424 
3 401 426 403 
3 426 401 425 
3 403 427 405 
3 427 403 426 
3 427 407 405 
3 407 427 428 
3 407 464 463 
3 464 407 428 
3 424 433 425 
3 433 424 432 
3 425 434 426 
3 434 425 433 
3 434 435 427 
3 427 426 434 
3 427 436 428 
3 436 427 435 
3 464 436 465 
3 436 464 428 
3 411 414 433 
3 433 432 411 
3 433 416 434 
3 416 433 414 
3 416 418 434 
3 435 434 418 
3 418 420 436 
3 436 435 418 
3 420 422 465 
3 465 436 420 
3 409 430 408 
3 430 409 429 
3 408 447 446 
3 447 408 430 
3 429 438 430 
3 438 429 437 
3 528 438 448 
3 430 438 528 
3 430 528 447 
3 421 438 437 
3 437 422 421 
3 438 421 448 
3 37 448 421 
3 40 440 0 
3 440 40 439 
3 0 441 2 
3 441 0 440 
3 5 441 442 
3 441 5 2 
3 8 5 443 
3 442 443 5 
3 443 11 8 
3 11 443 444 
3 11 445 14 
3 445 11 444 
3 445 458 14 
3 78 14 458 
3 17 447 49 
3 447 17 446 
3 159 532 531 
3 532 159 162 
3 407 450 406 
3 450 407 449 
3 450 451 445 
3 445 406 450 
3 451 459 458 
3 458 445 451 
3 408 446 453 
3 452 453 446 
3 408 454 409 
3 454 408 453 
3 463 449 407 
3 449 463 462 
3 449 456 450 
3 456 449 455 
3 450 457 451 
3 457 450 456 
3 451 460 459 
3 460 451 457 
3 462 633 455 
3 455 449 462 
3 458 446 78 
3 17 78 446 
3 452 446 459 
3 458 459 446 
3 459 460 452 
3 541 461 543 
3 543 542 541 
3 545 544 543 
3 543 461 545 
3 633 462 454 
3 462 463 409 
3 409 454 462 
3 429 409 463 
3 463 464 429 
3 464 465 437 
3 437 429 464 
3 465 422 437 
3 455 649 456 
3 649 455 650 
3 649 467 651 
3 468 651 467 
3 469 651 468 
3 470 460 469 
3 460 470 452 
3 638 453 452 
3 452 470 638 
3 399 472 398 
3 472 399 471 
3 398 473 441 
3 473 398 472 
3 441 473 474 
3 474 442 441 
3 474 475 400 
3 400 442 474 
3 400 475 476 
3 476 401 400 
3 476 399 401 
3 399 476 471 
3 471 478 472 
3 478 471 477 
3 472 479 473 
3 479 472 478 
3 473 479 480 
3 480 474 473 
3 480 481 474 
3 475 474 481 
3 481 482 476 
3 476 475 481 
3 476 477 471 
3 477 476 482 
3 477 484 478 
3 484 477 483 
3 478 485 479 
3 485 478 484 
3 480 479 485 
3 482 483 477 
3 647 646 483 
3 484 483 646 
3 648 487 488 
3 487 648 646 
3 489 648 488 
3 489 490 480 
3 481 480 490 
3 481 491 482 
3 491 481 490 
3 483 491 647 
3 491 483 482 
3 114 492 439 
3 439 40 114 
3 492 493 423 
3 423 439 492 
3 493 431 423 
3 431 493 494 
3 494 495 410 
3 410 431 494 
3 495 113 20 
3 20 410 495 
3 113 496 120 
3 121 632 492 
3 492 114 121 
3 492 497 493 
3 497 492 632 
3 494 613 498 
3 498 499 495 
3 495 494 498 
3 495 496 113 
3 496 495 499 
3 520 501 521 
3 501 520 527 
3 501 523 522 
3 522 521 501 
3 488 502 503 
3 503 489 488 
3 503 504 489 
3 490 489 504 
3 504 505 491 
3 491 490 504 
3 500 486 505 
3 491 505 486 
3 526 525 501 
3 501 527 526 
3 501 524 523 
3 524 501 525 
3 508 509 503 
3 503 502 508 
3 509 510 504 
3 504 503 509 
3 504 511 505 
3 511 504 510 
3 505 506 500 
3 506 505 511 
3 512 513 487 
3 487 486 512 
3 487 514 488 
3 514 487 513 
3 488 515 502 
3 515 488 514 
3 502 516 508 
3 516 502 515 
3 516 517 507 
3 507 508 516 
3 507 518 506 
3 518 507 517 
3 506 519 500 
3 519 506 518 
3 519 512 500 
3 486 500 512 
3 520 521 513 
3 513 512 520 
3 513 522 514 
3 522 513 521 
3 515 514 522 
3 522 523 515 
3 523 524 516 
3 516 515 523 
3 524 525 517 
3 517 516 524 
3 517 526 518 
3 526 517 525 
3 526 527 519 
3 519 518 526 
3 519 520 512 
3 520 519 527 
3 447 154 49 
3 154 447 528 
3 155 529 58 
3 448 58 529 
3 448 530 528 
3 530 448 529 
3 528 158 154 
3 158 528 530 
3 159 531 155 
3 529 155 531 
3 529 532 530 
3 532 529 531 
3 530 162 158 
3 162 530 532 
3 534 555 561 
3 554 561 555 
3 534 557 556 
3 556 555 534 
3 535 469 468 
3 469 535 536 
3 469 537 470 
3 537 469 536 
3 537 639 638 
3 638 470 537 
3 561 559 534 
3 559 561 560 
3 559 558 557 
3 557 534 559 
3 535 541 536 
3 541 535 540 
3 536 542 537 
3 542 536 541 
3 542 639 537 
3 639 542 543 
3 639 544 637 
3 544 639 543 
3 637 545 635 
3 545 637 544 
3 635 538 533 
3 538 635 545 
3 546 547 467 
3 467 466 546 
3 467 548 468 
3 548 467 547 
3 548 549 468 
3 535 468 549 
3 535 550 540 
3 550 535 549 
3 540 551 539 
3 551 540 550 
3 551 552 538 
3 538 539 551 
3 538 553 533 
3 553 538 552 
3 553 546 533 
3 466 533 546 
3 554 547 546 
3 547 554 555 
3 555 548 547 
3 548 555 556 
3 556 557 549 
3 549 548 556 
3 558 550 557 
3 549 557 550 
3 558 551 550 
3 551 558 559 
3 551 560 552 
3 560 551 559 
3 560 561 553 
3 553 552 560 
3 553 554 546 
3 554 553 561 
3 192 564 195 
3 564 192 562 
3 563 565 564 
3 564 562 563 
3 195 566 198 
3 566 195 564 
3 565 622 564 
3 566 564 622 
3 200 569 567 
3 569 200 203 
3 567 570 568 
3 570 567 569 
3 203 571 569 
3 571 203 206 
3 569 572 570 
3 572 569 571 
3 192 573 562 
3 573 192 209 
3 562 574 563 
3 574 562 573 
3 209 577 573 
3 577 209 214 
3 573 578 574 
3 578 573 577 
3 200 567 577 
3 577 214 200 
3 568 578 577 
3 577 567 568 
3 563 574 575 
3 575 565 563 
3 565 576 622 
3 576 565 575 
3 578 579 575 
3 575 574 578 
3 575 580 576 
3 580 575 579 
3 568 570 579 
3 579 578 568 
3 570 572 580 
3 580 579 570 
3 566 219 198 
3 219 566 581 
3 582 566 622 
3 566 582 581 
3 581 222 219 
3 222 581 583 
3 582 583 581 
3 583 582 584 
3 585 225 222 
3 222 583 585 
3 584 585 583 
3 585 584 586 
3 585 228 225 
3 228 585 587 
3 588 587 585 
3 585 586 588 
3 582 590 584 
3 590 582 589 
3 584 590 586 
3 591 586 590 
3 586 593 588 
3 593 586 591 
3 587 234 228 
3 234 587 592 
3 588 592 587 
3 592 588 593 
3 599 590 589 
3 589 618 599 
3 599 597 591 
3 591 590 599 
3 597 595 591 
3 593 591 595 
3 592 237 234 
3 237 592 594 
3 593 594 592 
3 594 593 595 
3 594 240 237 
3 240 594 596 
3 595 596 594 
3 596 595 597 
3 596 243 240 
3 243 596 598 
3 597 598 596 
3 598 597 599 
3 206 600 571 
3 600 206 246 
3 571 614 572 
3 614 571 600 
3 246 601 600 
3 601 246 248 
3 600 604 614 
3 604 600 601 
3 248 602 601 
3 602 248 250 
3 601 607 604 
3 607 601 602 
3 250 603 602 
3 603 250 252 
3 603 610 602 
3 607 602 610 
3 252 496 603 
3 496 252 120 
3 642 641 644 
3 645 644 641 
3 616 615 606 
3 606 605 616 
3 614 604 606 
3 606 615 614 
3 606 608 605 
3 608 606 609 
3 607 609 606 
3 606 604 607 
3 612 611 609 
3 608 609 611 
3 607 612 609 
3 612 607 610 
3 498 613 611 
3 611 612 498 
3 499 498 610 
3 612 610 498 
3 614 580 572 
3 580 614 615 
3 580 616 576 
3 616 580 615 
3 598 267 243 
3 267 598 617 
3 599 617 598 
3 617 599 618 
3 576 619 622 
3 619 576 616 
3 589 621 618 
3 621 589 619 
3 617 271 267 
3 271 617 620 
3 618 620 617 
3 620 618 621 
3 619 605 623 
3 605 619 616 
3 619 625 621 
3 625 619 623 
3 620 276 271 
3 276 620 624 
3 621 624 620 
3 624 621 625 
3 623 605 608 
3 608 626 623 
3 626 625 623 
3 625 626 628 
3 627 280 276 
3 276 624 627 
3 628 627 624 
3 624 625 628 
3 626 608 611 
3 611 629 626 
3 629 631 628 
3 628 626 629 
3 630 280 627 
3 280 630 284 
3 631 630 627 
3 627 628 631 
3 629 611 613 
3 613 497 629 
3 497 632 631 
3 631 629 497 
3 630 121 284 
3 121 630 632 
3 631 632 630 
3 650 633 634 
3 633 650 455 
3 635 533 466 
3 466 634 635 
3 454 634 633 
3 634 454 636 
3 634 637 635 
3 637 634 636 
3 636 454 453 
3 453 638 636 
3 638 639 637 
3 637 636 638 
3 448 37 58 
3 499 641 496 
3 499 645 641 
3 499 640 645 
3 641 642 603 
3 603 496 641 
3 603 643 610 
3 603 644 643 
3 603 642 644 
3 610 640 499 
3 640 610 643 
3 644 645 640 
3 640 643 644 
3 582 619 589 
3 619 582 622 
3 494 493 613 
3 497 613 493 
3 487 647 486 
3 647 487 646 
3 647 491 486 
3 646 648 485 
3 485 484 646 
3 485 489 480 
3 489 485 648 
3 650 466 467 
3 467 649 650 
3 650 634 466 
3 456 651 457 
3 651 456 649 
3 469 457 651 
3 457 469 460 
3 653 652 654 
3 656 655 653 
3 656 653 654 
3 652 657 658 
3 660 658 657 
3 660 657 659 
3 652 658 654 
3 660 656 654 
3 660 654 658 
3 657 653 655 
3 657 655 659 
3 653 657 652 
3 662 661 663 
3 665 664 662 
3 665 662 663 
3 661 666 667 
3 669 667 666 
3 669 666 668 
3 661 667 663 
3 669 665 663 
3 669 663 667 
3 666 662 664 
3 666 664 668 
3 662 666 661 
3 671 670 672 
3 674 673 671 
3 674 671 672 
3 670 675 676 
3 678 676 675 
3 678 675 677 
3 670 676 672 
3 678 674 672 
3 678 672 676 
3 675 671 673 
3 675 673 677 
3 671 675 670 
3 680 679 681 
3 683 682 680 
3 683 680 681 
3 679 684 685 
3 687 685 684 
3 687 684 686 
3 679 685 681 
3 687 683 681 
3 687 681 685 
3 684 680 682 
3 684 682 686 
3 680 684 679 
3 689 688 690 
3 692 691 689 
3 692 689 690 
3 688 693 694 
3 696 694 693 
3 696 693 695 
3 688 694 690 
3 696 692 690 
3 696 690 694 
3 693 689 691 
3 693 691 695 
3 689 693 688 
3 698 697 699 
3 701 700 698 
3 701 698 699 
3 697 702 703 
3 705 703 702 
3 705 702 704 
3 697 703 699 
3 705 701 699 
3 705 699 703 
3 702 698 700 
3 702 700 704 
3 698 702 697 
3 707 706 708 
3 710 709 707 
3 710 707 708 
3 706 711 712 
3 714 712 711 
3 714 711 713 
3 706 712 708 
3 714 710 708 
3 714 708 712 
3 711 707 709 
3 711 709 713 
3 707 711 706 
3 716 715 717 
3 719 718 716 
3 719 716 717 
3 715 720 721 
3 723 721 720 
3 723 720 722 
3 715 721 717 
3 723 719 717 
3 723 717 721 
3 720 716 718 
3 720 718 722 
3 716 720 715 
3 725 724 726 
3 728 727 725 
3 728 725 726 
3 724 729 730 
3 732 730 729 
3 732 729 731 
3 724 730 726 
3 732 728 726 
3 732 726 730 
3 729 725 727 
3 729 727 731 
3 725 729 724 
3 734 733 735 
3 737 736 734 
3 737 734 735 
3 733 738 739 
3 741 739 738 
3 741 738 740 
3 733 739 735 
3 741 737 735 
3 741 735 739 
3 738 734 736 
3 738 736 740 
3 734 738 733 
3 743 742 747 
3 746 747 742 
3 744 743 748 
3 747 748 743 
3 745 744 749 
3 748 749 744 
3 746 742 753 
3 750 753 742 
3 753 750 754 
3 751 754 750 
3 754 751 755 
3 752 755 751 
3 756 757 761 
3 761 760 756 
3 757 758 762 
3 762 761 757 
3 758 759 763 
3 763 762 758 
3 756 760 767 
3 767 764 756 
3 764 767 768 
3 768 765 764 
3 765 768 769 
3 769 766 765 
