ply
format ascii 1.0
comment VCGLIB generated
element vertex 352
property float x
property float y
property float z
element face 671
property list uchar int vertex_indices
end_header
-33.3972 -110.57 -269.066 
-32.8312 -121.891 -269.444 
-32.8312 -110.57 -263.029 
-32.4537 -121.891 -264.161 
-31.3217 -110.004 -273.217 
-30.9445 -96.4185 -267.557 
-29.6236 -98.1166 -261.896 
-29.435 -121.702 -273.972 
-29.2461 -133.778 -269.255 
-28.4915 -96.9845 -273.595 
-28.3029 -133.778 -263.783 
-26.4159 -86.9842 -267.368 
-25.8499 -89.6258 -260.387 
-25.095 -132.835 -274.727 
-24.9064 -50.5676 -129.25 
-23.9629 -46.6053 -132.457 
-23.7743 -143.401 -269.632 
-23.7743 -113.023 -224.725 
-23.3969 -53.9641 -131.514 
-23.0194 -101.324 -218.121 
-23.0194 -50.1904 -135.288 
-22.8308 -110.759 -255.858 
-22.6423 -115.476 -242.65 
-22.6423 -46.9828 -125.665 
-22.6423 -43.5866 -134.156 
-22.4534 -119.816 -256.236 
-22.2648 -44.3412 -128.495 
-22.0762 -86.7953 -273.595 
-22.0762 -46.0393 -138.684 
-21.5102 -112.268 -213.215 
-21.5102 -57.5492 -135.099 
-21.5102 -53.0206 -124.533 
-21.1327 -50.5676 -123.212 
-20.9439 -55.0962 -126.231 
-20.9439 -54.7187 -138.496 
-20.3778 -101.324 -255.103 
-20.1893 -39.8129 -133.401 
-19.6232 -95.0975 -239.443 
-19.6232 -90.3804 -221.14 
-19.4346 -49.813 -119.627 
-19.2458 -50.5676 -142.081 
-19.0572 -78.4933 -266.236 
-18.6797 -36.0393 -117.929 
-18.3023 -150.194 -263.972 
-18.3023 -40.7564 -139.628 
-18.3023 -37.1713 -129.627 
-18.1137 -149.817 -269.255 
-18.1137 -49.2469 -113.778 
-17.9251 -135.854 -255.67 
-17.9251 -79.814 -259.255 
-17.5477 -135.288 -230.386 
-17.3591 -36.0393 -132.269 
-17.1702 -57.1717 -140.194 
-16.9816 -54.1527 -119.249 
-16.9816 -42.832 -120.382 
-16.9816 -36.4164 -111.702 
-16.9816 -36.2278 -124.156 
-16.793 -136.986 -245.481 
-16.2267 -62.4549 -116.231 
-16.2267 -60.1908 -126.797 
-16.0381 -30.7561 -114.344 
-14.9061 -95.0975 -203.026 
-14.7175 -61.8889 -110.004 
-14.7175 -60.0019 -122.08 
-14.7175 -34.9069 -106.042 
-14.7175 -28.4916 -118.117 
-14.5286 -147.175 -274.538 
-13.9626 -47.1714 -101.324 
-13.9626 -40.379 -103.211 
-13.9626 -27.5481 -110.947 
-13.774 -77.5499 -273.217 
-13.5851 -115.853 -203.781 
-13.5851 -85.6632 -213.215 
-13.208 -63.0209 -133.212 
-12.6419 -61.3228 -104.155 
-12.2645 -66.2286 -108.495 
-11.887 -53.7755 -101.324 
-11.5096 -73.7762 -257.934 
-11.321 -131.137 -211.894 
-11.1324 -69.4362 -264.915 
-9.81146 -83.2105 -231.141 
-9.62288 -69.2476 -115.476 
-9.62288 -31.3221 -137.552 
-9.4343 -24.3405 -127.552 
-9.24542 -87.1728 -252.273 
-8.86797 -59.4359 -266.613 
-8.4908 -69.6251 -125.854 
-8.4908 -37.3599 -141.892 
-7.92477 -69.4362 -273.217 
-7.54732 -58.4924 -141.515 
-7.35873 -66.7946 -257.934 
-6.98128 -57.9263 -187.554 
-6.60382 -96.9845 -196.988 
-6.60382 -90.5693 -199.064 
-6.41524 -57.7378 -259.821 
-6.22638 -46.0393 -93.9656 
-6.0378 -159.628 -261.708 
-5.84921 -153.024 -253.594 
-5.84921 -85.2861 -204.347 
-5.84921 -41.3225 -143.779 
-5.0943 -104.343 -196.799 
-4.90572 -55.4736 -206.8 
-4.33968 -33.9637 -94.7202 
-4.15082 -81.701 -210.951 
-3.96223 -20.0008 -120.759 
-3.77365 -57.7378 -94.1542 
-3.58478 -70.3797 -198.875 
-3.39619 -62.0774 -274.35 
-3.20761 -143.967 -216.423 
-3.20761 -70.0022 -186.799 
-2.26413 -152.647 -231.895 
-2.26413 -29.6237 -89.2484 
-2.07526 -19.6234 -108.683 
-1.88667 -35.6618 -272.085 
-1.69809 -157.553 -272.463 
-1.69809 -123.4 -202.649 
-1.69809 -80.5689 -179.629 
-1.69809 -75.6629 -185.667 
-1.69809 -73.0213 -191.894 
-1.32063 -62.2663 -87.9278 
-1.32063 -36.6053 -267.557 
-0.754593 -79.814 -233.027 
-0.754593 -25.6615 -85.0976 
0.188889 -133.778 -207.366 
0.188889 -50.5676 -146.043 
0.377472 -53.7755 -260.764 
0.566345 -90.5693 -170.95 
0.566345 -66.04 -82.456 
0.566345 -43.7752 -173.214 
0.754929 -100.192 -177.742 
0.754929 -80.9461 -250.764 
0.754929 -21.6989 -81.5125 
1.13237 -58.1152 -252.651 
1.13237 -50.7565 -89.8145 
1.88699 -60.5679 -143.024 
1.88699 -25.6615 -136.609 
2.07558 -51.3225 -157.742 
2.26445 -41.3225 -190.196 
2.45303 -162.836 -257.556 
2.64191 -44.3412 -259.443 
2.83049 -39.8129 -89.6259 
3.01906 -19.2462 -126.42 
3.01906 -16.6046 -80.7579 
3.20793 -56.0396 -272.463 
3.39651 -71.8892 -78.6824 
3.39651 -69.6251 -154.345 
3.5851 -74.5308 -115.476 
3.5851 -71.7006 -128.118 
3.77397 -24.3405 -95.6637 
3.96255 -73.3987 -101.702 
3.96255 -65.6625 -93.5882 
4.34001 -63.9644 -148.118 
4.34001 -13.7741 -86.2297 
4.71745 -35.4732 -144.156 
5.09462 -12.8307 -92.6447 
5.47208 -115.665 -181.516 
5.47208 -89.4372 -160.383 
5.66066 -43.7752 -208.687 
5.66066 -42.0771 -149.628 
5.66066 -13.0195 -99.4374 
6.03812 -77.5499 -93.5882 
6.03812 -36.4164 -176.987 
6.03812 -31.1332 -272.84 
6.03812 -25.4726 -82.6446 
6.2267 -31.8881 -266.991 
6.60414 -14.9062 -107.928 
6.9816 -44.9072 -223.216 
7.17018 -67.1721 -247.745 
7.35905 -77.5499 -79.0598 
7.54764 -79.0594 -86.2297 
7.54764 -70.7571 -76.9843 
7.54764 -40.7564 -257.745 
8.11368 -147.93 -208.121 
8.11368 -65.4739 -79.2484 
9.24574 -55.6622 -86.0411 
9.24574 -27.3596 -139.062 
9.43431 -44.3412 -87.9278 
9.81148 -78.4933 -93.211 
9.81148 -16.2271 -86.6072 
10.1889 -34.5297 -87.9278 
10.3775 -21.3218 -84.1541 
10.5664 -77.9273 -144.911 
11.1324 -71.7006 -133.212 
12.0759 -76.4178 -82.6446 
12.0759 -73.9648 -138.873 
12.8305 -162.836 -247.179 
13.0191 -74.5308 -103.022 
13.0191 -15.2837 -99.4374 
13.5851 -164.157 -264.727 
13.774 -69.059 -81.5125 
14.34 -142.08 -193.403 
14.5286 -161.704 -269.821 
15.6607 -73.5873 -87.5506 
16.4156 -30.3786 -155.1 
16.6042 -31.6993 -188.309 
16.6042 -18.3027 -96.2298 
16.9816 -25.0954 -90.758 
17.5477 -161.327 -233.782 
17.5477 -28.4916 -145.477 
17.9251 -122.646 -167.553 
17.9251 -19.6234 -125.099 
18.1137 -33.5863 -268.5 
18.1137 -32.6428 -272.274 
19.0572 -164.534 -259.632 
19.0572 -61.8889 -88.4938 
19.6232 -69.8137 -94.9091 
19.6232 -42.0771 -258.5 
20.1893 -43.0206 -208.309 
20.5667 -108.494 -153.968 
21.1328 -156.609 -213.97 
21.1328 -74.3422 -125.099 
22.0762 -44.7184 -224.348 
22.4534 -162.459 -265.104 
22.6423 -94.9089 -144.345 
22.8309 -77.1724 -130.193 
23.7744 -82.267 -135.854 
23.7744 -44.3412 -89.437 
23.9629 -146.609 -193.403 
24.9064 -163.025 -249.443 
25.4725 -23.7745 -135.854 
25.4725 -19.8122 -106.985 
26.0385 -25.4726 -168.308 
26.416 -70.7571 -110.193 
26.6045 -26.7935 -96.0412 
26.7934 -137.175 -179.252 
27.7366 -162.647 -259.821 
27.7366 -54.3415 -91.7015 
28.4915 -160.572 -266.047 
28.4915 -63.3984 -97.9281 
28.4915 -29.0577 -267.746 
28.869 -161.327 -237.367 
28.869 -28.3031 -272.463 
29.8122 -125.099 -164.911 
30.7556 -37.1713 -257.934 
31.6991 -24.9066 -145.288 
32.2652 -110.759 -152.081 
32.6426 -74.3422 -124.344 
33.7747 -28.4916 -103.211 
33.9633 -80.0029 -130.948 
33.9633 -68.8702 -114.344 
34.1521 -34.9069 -220.763 
34.3407 -95.6636 -141.326 
34.7182 -160.383 -250.764 
34.9068 -57.5492 -270.953 
35.0954 -157.93 -266.613 
35.4728 -30.0012 -204.347 
35.4728 -25.6615 -186.988 
36.2277 -130.948 -172.837 
36.2277 -37.9259 -258.5 
37.1709 -151.137 -207.555 
37.1709 -61.1343 -253.594 
37.1709 -44.5298 -97.5507 
37.3598 -158.308 -259.443 
37.3598 -32.0767 -272.84 
37.7372 -68.8702 -259.821 
38.3033 -32.4542 -269.632 
38.4919 -145.288 -196.611 
38.6804 -30.19 -111.136 
38.8693 -117.551 -159.251 
39.0579 -159.44 -244.537 
39.2465 -49.2469 -271.142 
39.2465 -24.3405 -156.61 
40.19 -156.232 -263.972 
40.19 -152.835 -214.347 
40.756 -76.7949 -251.141 
40.756 -61.3228 -109.627 
41.322 -157.175 -254.915 
41.322 -135.665 -183.025 
41.322 -41.511 -259.255 
42.2655 -37.5488 -268.689 
42.643 -45.4733 -104.532 
44.3411 -31.3221 -122.835 
44.5297 -123.023 -168.874 
44.9071 -156.798 -233.405 
44.9071 -64.719 -118.683 
45.4731 -50.5676 -259.632 
45.8506 -155.477 -249.254 
46.4166 -151.703 -268.123 
46.4166 -141.514 -203.97 
46.6052 -108.683 -156.421 
46.9827 -76.7949 -236.046 
47.1715 -79.248 -243.594 
47.5487 -93.022 -145.477 
47.5487 -46.2279 -113.966 
47.5487 -42.0771 -234.914 
47.9262 -24.9066 -172.082 
48.1147 -62.0774 -228.31 
48.1147 -52.0771 -247.745 
48.4922 -151.892 -257.745 
48.4922 -73.0213 -130.571 
48.8696 -84.1537 -252.273 
49.6243 -32.0767 -133.401 
50.7563 -84.9086 -248.5 
51.1338 -131.892 -197.743 
51.1338 -38.1148 -218.687 
52.0773 -151.703 -240.197 
52.0773 -52.266 -235.669 
53.3979 -46.7939 -124.91 
53.964 -78.6819 -223.593 
53.964 -28.6805 -185.667 
54.1528 -84.9086 -242.273 
54.7189 -81.3235 -232.084 
54.7189 -34.7183 -204.536 
54.9075 -33.3977 -142.647 
56.2284 -148.685 -234.537 
56.2284 -142.835 -214.347 
56.417 -114.91 -180.572 
56.417 -95.0975 -252.839 
56.6059 -144.722 -261.142 
56.7944 -57.5492 -131.325 
56.983 -47.926 -132.457 
57.3605 -145.854 -247.556 
57.3605 -65.2851 -206.8 
57.9265 -63.3984 -136.42 
58.1151 -118.683 -193.969 
58.6811 -100.947 -167.365 
58.6811 -72.4553 -144.345 
59.0586 -84.72 -154.157 
59.0586 -52.0771 -217.933 
59.8135 -84.1537 -210.574 
60.9456 -125.287 -257.745 
61.1341 -35.2844 -157.364 
61.3227 -141.703 -227.367 
61.3227 -110.004 -255.67 
61.3227 -94.3429 -243.405 
61.7002 -137.175 -257.745 
61.7002 -101.324 -195.479 
61.7002 -50.5676 -144.156 
61.889 -93.7769 -201.139 
61.889 -61.8889 -194.724 
62.4551 -87.5502 -195.29 
62.4551 -49.0581 -205.102 
62.8322 -37.5488 -168.119 
63.0211 -86.0407 -220.197 
63.5871 -88.1162 -182.648 
63.9646 -62.2663 -156.798 
64.1532 -90.7578 -232.273 
64.1532 -73.0213 -167.931 
64.1532 -41.3225 -185.479 
64.9078 -134.344 -222.461 
64.9078 -125.476 -205.668 
64.9078 -57.1717 -176.987 
65.2852 -136.231 -243.405 
65.2852 -54.3415 -165.289 
67.1722 -103.966 -238.688 
68.1154 -114.91 -205.102 
68.4929 -125.665 -239.065 
68.6817 -116.419 -237.744 
68.8703 -100.004 -208.687 
68.8703 -96.041 -224.914 
70.3799 -118.117 -218.121 
71.1345 -106.419 -219.631 
3 174 176 133 
3 95 105 133 
3 95 133 176 
3 95 176 140 
3 95 140 102 
3 102 179 140 
3 140 179 176 
3 174 216 176 
3 119 174 105 
3 119 174 127 
3 127 174 173 
3 127 173 170 
3 144 170 127 
3 173 174 204 
3 189 204 173 
3 173 189 170 
3 170 189 168 
3 144 168 170 
3 189 204 192 
3 183 192 189 
3 183 189 168 
3 168 183 169 
3 169 183 177 
3 177 183 192 
3 192 205 177 
3 177 205 186 
3 177 186 160 
3 160 169 177 
3 160 186 149 
3 149 150 160 
3 150 160 169 
3 150 169 168 
3 150 168 144 
3 144 150 127 
3 127 150 119 
3 119 150 105 
3 174 216 204 
3 204 226 228 
3 146 186 149 
3 81 149 75 
3 74 75 149 
3 74 149 150 
3 74 105 76 
3 192 204 205 
3 204 205 228 
3 76 95 67 
3 67 68 95 
3 68 95 102 
3 68 102 64 
3 64 69 102 
3 69 102 148 
3 69 148 112 
3 112 165 148 
3 148 165 159 
3 154 159 148 
3 148 154 152 
3 142 152 148 
3 142 148 131 
3 122 131 148 
3 111 122 148 
3 111 148 102 
3 102 111 179 
3 111 179 122 
3 122 163 179 
3 163 179 180 
3 163 180 142 
3 142 163 131 
3 180 196 179 
3 142 180 178 
3 142 178 152 
3 152 154 178 
3 154 178 187 
3 154 187 159 
3 159 165 187 
3 196 223 195 
3 178 180 195 
3 195 196 180 
3 178 187 195 
3 196 223 216 
3 179 216 196 
3 47 67 76 
3 74 76 47 
3 47 74 62 
3 53 62 47 
3 47 53 39 
3 39 54 47 
3 47 54 55 
3 55 68 47 
3 47 68 67 
3 64 68 55 
3 55 69 64 
3 55 69 60 
3 60 65 69 
3 65 69 83 
3 83 104 69 
3 69 104 112 
3 104 112 165 
3 60 65 42 
3 42 56 65 
3 56 65 45 
3 45 51 65 
3 51 65 83 
3 42 55 54 
3 39 54 32 
3 23 32 54 
3 23 54 26 
3 26 45 54 
3 45 54 56 
3 54 56 42 
3 62 74 75 
3 75 81 62 
3 62 81 58 
3 53 58 62 
3 42 55 60 
3 122 131 163 
3 81 149 146 
3 86 146 81 
3 81 86 63 
3 58 63 81 
3 53 58 63 
3 59 63 53 
3 53 59 33 
3 32 53 39 
3 14 33 18 
3 18 20 14 
3 14 20 15 
3 15 26 14 
3 14 26 23 
3 23 32 14 
3 59 63 86 
3 73 86 59 
3 59 73 30 
3 30 33 59 
3 30 73 52 
3 34 52 30 
3 30 34 20 
3 18 20 30 
3 18 30 33 
3 86 146 147 
3 134 147 86 
3 86 134 73 
3 146 147 182 
3 134 182 147 
3 73 89 134 
3 124 134 89 
3 89 124 52 
3 52 73 89 
3 134 182 184 
3 151 184 134 
3 134 151 136 
3 15 26 24 
3 24 36 26 
3 26 36 45 
3 36 45 51 
3 20 34 40 
3 28 40 20 
3 20 28 24 
3 15 24 20 
3 24 36 44 
3 36 44 51 
3 24 28 44 
3 28 44 40 
3 40 87 44 
3 44 87 51 
3 34 40 52 
3 52 124 40 
3 40 124 99 
3 87 99 40 
3 124 136 158 
3 153 158 124 
3 124 153 99 
3 153 158 193 
3 193 198 153 
3 153 198 175 
3 135 175 153 
3 135 153 87 
3 87 153 99 
3 82 83 51 
3 51 87 82 
3 82 87 135 
3 83 135 82 
3 83 104 141 
3 141 165 104 
3 83 141 135 
3 135 175 200 
3 141 200 135 
3 141 165 200 
3 165 200 187 
3 187 200 220 
3 216 223 251 
3 226 251 216 
3 251 265 228 
3 226 228 251 
3 228 265 239 
3 205 239 228 
3 205 239 222 
3 186 222 205 
3 222 239 210 
3 186 210 222 
3 186 210 146 
3 210 239 236 
3 214 236 210 
3 210 214 184 
3 182 184 210 
3 182 210 146 
3 239 274 236 
3 239 265 274 
3 145 151 184 
3 181 184 145 
3 145 181 156 
3 116 126 145 
3 136 145 151 
3 91 145 136 
3 91 136 128 
3 128 193 136 
3 109 145 91 
3 118 145 109 
3 109 118 106 
3 91 106 109 
3 117 145 118 
3 116 145 117 
3 145 156 126 
3 158 193 136 
3 91 137 128 
3 161 193 128 
3 193 261 234 
3 219 234 198 
3 193 198 234 
3 194 221 193 
3 193 221 261 
3 221 261 246 
3 246 285 261 
3 194 221 246 
3 194 246 207 
3 198 219 200 
3 106 132 101 
3 101 106 91 
3 91 101 137 
3 101 137 157 
3 137 207 194 
3 207 246 245 
3 207 245 240 
3 207 240 211 
3 207 211 166 
3 166 206 211 
3 206 211 240 
3 137 157 207 
3 157 207 166 
3 101 157 166 
3 101 166 139 
3 139 171 166 
3 166 171 206 
3 120 164 139 
3 139 164 171 
3 206 233 240 
3 233 240 248 
3 248 268 240 
3 240 268 284 
3 268 284 275 
3 268 269 248 
3 284 318 294 
3 240 294 284 
3 294 318 302 
3 240 302 294 
3 240 302 245 
3 245 302 299 
3 299 302 338 
3 302 338 331 
3 329 331 338 
3 302 318 331 
3 245 299 246 
3 246 299 285 
3 101 139 132 
3 164 201 202 
3 113 164 162 
3 162 164 202 
3 200 219 220 
3 219 257 271 
3 219 271 291 
3 219 234 291 
3 234 291 303 
3 234 303 261 
3 261 321 303 
3 261 285 321 
3 285 321 332 
3 285 332 299 
3 299 338 332 
3 312 329 331 
3 318 331 312 
3 312 318 286 
3 181 184 215 
3 184 215 214 
3 214 236 215 
3 215 236 238 
3 181 215 156 
3 156 215 213 
3 213 215 238 
3 238 241 213 
3 208 213 129 
3 129 156 213 
3 126 129 156 
3 92 100 129 
3 92 129 93 
3 93 126 129 
3 93 116 126 
3 93 98 116 
3 103 116 117 
3 103 117 118 
3 98 103 116 
3 103 167 118 
3 125 143 94 
3 85 107 143 
3 85 88 107 
3 85 94 79 
3 113 125 120 
3 94 132 167 
3 85 143 94 
3 61 100 92 
3 61 92 93 
3 61 93 72 
3 72 98 93 
3 72 103 98 
3 72 103 80 
3 80 121 103 
3 103 121 167 
3 121 167 130 
3 121 130 80 
3 80 84 130 
3 77 130 90 
3 90 94 130 
3 94 130 167 
3 79 90 94 
3 77 90 79 
3 77 79 41 
3 41 77 49 
3 12 49 41 
3 12 41 11 
3 11 27 41 
3 27 41 70 
3 70 79 41 
3 79 88 85 
3 70 79 88 
3 84 130 77 
3 77 84 49 
3 49 84 12 
3 12 84 35 
3 6 35 12 
3 80 84 37 
3 37 80 38 
3 38 80 72 
3 61 72 38 
3 19 38 22 
3 22 37 38 
3 38 61 19 
3 19 61 29 
3 17 29 19 
3 37 84 35 
3 35 37 22 
3 21 22 35 
3 17 19 22 
3 17 22 50 
3 50 57 22 
3 22 57 48 
3 25 48 22 
3 22 25 21 
3 2 21 35 
3 2 35 6 
3 21 25 2 
3 2 25 3 
3 3 25 10 
3 10 25 48 
3 43 48 10 
3 61 71 29 
3 29 71 78 
3 29 78 50 
3 17 50 29 
3 61 100 71 
3 71 100 115 
3 78 115 71 
3 129 208 155 
3 100 155 129 
3 100 155 115 
3 115 155 190 
3 123 190 115 
3 155 208 199 
3 190 199 155 
3 78 115 123 
3 108 123 78 
3 78 108 50 
3 123 190 172 
3 108 172 123 
3 108 110 50 
3 108 209 110 
3 108 172 209 
3 190 209 217 
3 190 217 224 
3 190 224 199 
3 199 232 224 
3 199 232 235 
3 199 235 208 
3 208 213 241 
3 235 241 208 
3 5 11 27 
3 5 27 9 
3 5 9 4 
3 4 5 0 
3 0 1 4 
3 1 4 7 
3 1 8 13 
3 7 13 1 
3 8 13 16 
3 16 66 13 
3 16 46 66 
3 46 114 188 
3 5 11 12 
3 6 12 5 
3 5 6 2 
3 0 2 5 
3 1 2 0 
3 2 3 1 
3 1 3 10 
3 8 10 1 
3 8 16 10 
3 10 43 16 
3 16 43 46 
3 43 46 96 
3 96 203 188 
3 50 57 110 
3 110 185 57 
3 57 97 48 
3 48 97 138 
3 96 138 48 
3 57 185 97 
3 97 185 138 
3 138 185 203 
3 203 218 242 
3 225 242 203 
3 203 225 212 
3 188 212 203 
3 230 242 218 
3 203 218 185 
3 185 230 218 
3 110 197 185 
3 185 197 230 
3 209 230 249 
3 110 209 197 
3 191 212 188 
3 66 114 46 
3 114 188 191 
3 209 249 256 
3 190 209 172 
3 217 256 209 
3 217 224 256 
3 224 256 267 
3 198 200 175 
3 132 167 106 
3 106 118 167 
3 128 137 161 
3 137 194 161 
3 161 194 193 
3 133 174 105 
3 95 105 76 
3 209 230 197 
3 48 96 43 
3 138 203 96 
3 46 96 188 
3 253 255 269 
3 253 260 269 
3 257 283 270 
3 257 283 271 
3 271 297 283 
3 271 291 297 
3 291 297 310 
3 291 310 303 
3 303 327 310 
3 265 270 251 
3 219 220 257 
3 195 220 223 
3 187 220 195 
3 220 257 237 
3 237 270 257 
3 237 251 270 
3 220 223 237 
3 303 321 327 
3 321 327 343 
3 321 343 332 
3 332 341 343 
3 332 338 341 
3 338 341 329 
3 275 284 287 
3 164 171 206 
3 250 287 286 
3 284 287 296 
3 296 318 284 
3 296 318 286 
3 287 296 286 
3 260 269 275 
3 268 275 269 
3 275 287 250 
3 243 275 250 
3 260 275 243 
3 248 255 269 
3 113 120 164 
3 164 206 201 
3 202 229 231 
3 201 202 229 
3 201 206 229 
3 229 233 206 
3 233 248 229 
3 229 255 248 
3 229 253 255 
3 229 231 253 
3 224 247 267 
3 247 267 272 
3 247 272 232 
3 232 247 224 
3 232 258 272 
3 258 272 279 
3 258 279 235 
3 235 258 232 
3 235 241 279 
3 241 279 282 
3 241 282 289 
3 241 289 238 
3 238 274 289 
3 236 238 274 
3 274 297 289 
3 289 297 309 
3 309 313 289 
3 265 270 274 
3 270 274 283 
3 283 297 274 
3 289 313 316 
3 316 317 289 
3 289 317 282 
3 282 317 279 
3 279 317 315 
3 306 315 279 
3 279 306 272 
3 272 306 267 
3 267 306 293 
3 278 293 267 
3 249 278 263 
3 230 263 249 
3 267 278 256 
3 256 278 249 
3 176 179 216 
3 216 226 204 
3 105 150 74 
3 223 251 237 
3 124 134 136 
3 33 53 31 
3 31 33 14 
3 32 53 31 
3 14 31 32 
3 297 309 310 
3 310 327 313 
3 309 313 310 
3 313 335 327 
3 327 343 335 
3 335 343 341 
3 337 341 335 
3 335 337 317 
3 316 317 335 
3 313 335 316 
3 329 337 334 
3 317 334 337 
3 317 334 315 
3 329 334 330 
3 326 330 334 
3 326 334 315 
3 315 326 306 
3 329 330 312 
3 312 319 330 
3 319 330 328 
3 326 328 330 
3 306 326 314 
3 293 314 306 
3 326 328 348 
3 345 348 326 
3 326 345 314 
3 319 328 348 
3 286 312 280 
3 280 298 312 
3 298 312 319 
3 250 286 264 
3 264 280 286 
3 337 341 329 
3 314 345 340 
3 340 345 350 
3 339 350 340 
3 339 340 305 
3 293 305 340 
3 293 340 314 
3 278 293 305 
3 273 305 278 
3 273 278 263 
3 304 305 273 
3 120 125 139 
3 125 132 139 
3 94 125 132 
3 113 125 143 
3 230 273 263 
3 305 339 322 
3 304 322 305 
3 333 348 319 
3 333 348 349 
3 349 351 348 
3 348 351 345 
3 345 351 350 
3 280 298 301 
3 298 301 319 
3 301 319 333 
3 301 333 336 
3 301 336 300 
3 333 336 349 
3 264 280 281 
3 281 300 301 
3 280 301 281 
3 264 281 300 
3 264 300 292 
3 264 292 290 
3 264 290 254 
3 254 264 250 
3 324 336 349 
3 292 300 324 
3 324 336 300 
3 292 324 307 
3 307 323 324 
3 323 324 344 
3 344 349 324 
3 344 349 351 
3 344 351 347 
3 347 350 351 
3 347 350 346 
3 339 346 350 
3 339 346 342 
3 322 342 339 
3 322 342 304 
3 304 342 311 
3 344 347 320 
3 346 347 320 
3 320 325 346 
3 325 346 342 
3 325 342 308 
3 308 342 311 
3 323 344 320 
3 262 277 288 
3 262 288 252 
3 252 266 288 
3 252 266 242 
3 242 252 225 
3 225 252 212 
3 252 262 244 
3 244 262 277 
3 227 244 252 
3 212 227 191 
3 212 252 227 
3 304 311 295 
3 295 311 276 
3 273 276 295 
3 273 295 304 
3 230 273 259 
3 259 273 276 
3 242 276 259 
3 242 259 230 
3 242 276 266 
3 266 276 288 
3 288 311 276 
3 288 311 308 
3 277 308 288 
