ply
format ascii 1.0
comment VCGLIB generated
element vertex 693
property float x
property float y
property float z
element face 1382
property list uchar int vertex_indices
end_header
-13.2314 19.176 1.41211 
-13.0351 19.1047 1.35256 
-12.347 19.0835 1.13943 
-11.5732 18.9086 0.96276 
-10.8051 18.6702 0.804466 
-10.037 18.5485 0.730774 
-9.38405 18.4733 0.820249 
-13.331 19.1145 1.64153 
-13.13 18.9817 1.64044 
-12.3636 18.9107 1.54539 
-11.5695 18.6864 1.43187 
-10.8025 18.384 1.34877 
-10.0751 18.2392 1.32907 
-13.3918 19.0843 1.89024 
-13.1838 18.9319 1.89024 
-12.3691 18.9055 1.89024 
-11.5701 18.6759 1.89024 
-10.7579 18.4065 1.89024 
-10.0473 18.2774 1.89024 
-9.51125 18.1322 1.89024 
-13.3151 19.8112 1.48821 
-13.1028 19.8631 1.41451 
-12.3681 20.1079 1.25245 
-11.5909 20.486 1.06843 
-10.8642 20.8866 0.880377 
-13.3482 19.9298 1.63511 
-13.1385 20.0011 1.61006 
-12.3813 20.3634 1.49268 
-11.6002 20.8769 1.31476 
-10.8841 21.4298 1.12661 
-13.3961 19.9998 1.89024 
-13.1795 20.0641 1.89024 
-12.376 20.4416 1.89024 
-11.6317 20.8874 1.89024 
-10.8695 21.3364 1.89024 
-9.80913 21.6788 1.89024 
-8.55902 21.5213 1.89024 
-13.2501 19.4242 1.36703 
-13.0322 19.4039 1.28374 
-12.3564 19.4732 1.02937 
-11.5525 19.4443 0.78243 
-10.7992 19.3957 0.552505 
-9.94286 19.309 0.331682 
-9.14427 19.1998 0.443706 
-13.4703 19.4189 1.89024 
-13.3951 19.4032 1.61755 
-13.289 19.6688 1.39862 
-13.0682 19.6455 1.31834 
-12.3582 19.7755 1.06629 
-11.5623 19.9786 0.83949 
-10.8163 20.1223 0.65304 
-9.91286 20.2982 0.335064 
-8.59235 20.4748 0.540918 
-13.5041 19.7513 1.89024 
-13.4289 19.7355 1.64069 
-13.4023 19.3391 1.89024 
-13.3364 19.3081 1.6175 
-13.2226 19.306 1.38702 
-13.0359 19.266 1.31488 
-4.39691 10.5888 -0.96416 
-3.25076 10.6529 -1.47465 
-1.88657 10.6536 -0.931898 
1.62703 10.5918 -0.614928 
4.63978 10.7985 -0.346418 
6.2419 10.6296 -1.38531 
8.21038 10.6365 -0.599913 
-4.57942 10.3788 0.342955 
-3.07413 9.8854 0.911627 
-1.8101 10.0196 0.442663 
1.69559 9.75965 0.477124 
4.44774 9.75514 0.73711 
6.19743 9.92091 1.30331 
8.51382 10.6407 0.870613 
-4.93275 10.0831 1.89024 
-3.13008 9.5961 1.89024 
-1.73767 9.50268 1.89024 
1.67573 9.32181 1.89024 
4.51461 9.46865 1.89024 
6.21362 9.89874 1.89024 
8.07341 10.8127 1.89024 
-3.04067 16.4154 -0.594543 
-1.11613 15.8365 -0.52016 
1.62174 15.6693 -0.546697 
4.67551 15.6124 -0.444832 
6.68048 15.5589 -0.621087 
-4.87196 16.7082 -0.080293 
-2.89833 17.4745 0.515006 
-1.00607 16.8696 0.53555 
1.65048 16.5278 0.471762 
4.58573 16.7098 0.504947 
6.73967 16.5061 0.369759 
8.33512 15.5772 0.690943 
-4.48066 18.0495 1.89024 
-2.83655 17.8638 1.89024 
-0.919935 17.2557 1.89024 
1.65004 16.9013 1.89024 
4.58572 17.1029 1.89024 
6.72799 16.9717 1.89024 
8.428 15.9297 1.89024 
-4.8378 12.4802 -1.00829 
-3.30193 12.4184 -1.68994 
-1.5898 12.3539 -1.32264 
1.58713 12.2878 -1.33671 
4.73698 12.2463 -0.833205 
6.43163 12.3094 -1.5331 
8.5514 12.3006 -0.577356 
9.1328 12.3543 0.950095 
8.91849 12.423 1.89024 
-6.7727 12.4131 1.89024 
-5.87485 12.5134 0.337432 
-5.31169 14.8878 -0.510092 
-3.24658 14.5633 -1.37574 
-1.2941 14.3374 -1.14582 
1.58595 14.1908 -1.27173 
4.77407 14.0756 -1.01866 
6.56015 14.1393 -1.21597 
8.35107 14.1639 -0.447446 
9.19706 14.2103 0.942939 
8.9973 13.7424 1.89024 
4.71316 8.74916 -0.635059 
4.69612 8.62166 0.603824 
6.15155 8.70645 0.948097 
7.3143 8.77491 0.481097 
7.28571 8.77403 -0.563635 
6.03587 8.76093 -1.19562 
5.11046 7.06832 -0.497777 
5.13506 7.06734 0.448867 
6.07604 7.07013 0.688472 
6.94776 7.08178 0.345336 
6.9277 7.08169 -0.434885 
6.0476 7.06861 -0.849577 
5.84485 5.40236 -0.377597 
5.85716 5.40033 0.178926 
6.24485 5.39886 0.509368 
7.1742 5.48556 0.221669 
7.16773 5.49354 -0.363313 
6.33013 5.4354 -0.610252 
5.5774 1.07194 -0.459718 
5.50499 1.10198 -0.020015 
5.84518 1.0298 0.087999 
6.04965 0.858328 -0.055146 
6.11549 0.847614 -0.408485 
5.85923 1.00255 -0.598081 
6.35553 4.99482 -0.562687 
6.897 4.82516 -0.294776 
6.90878 4.84862 0.17524 
6.27081 4.91162 0.438249 
6.26145 5.86425 -0.645416 
7.06599 6.05796 -0.359532 
7.06781 6.04333 0.246001 
6.22116 5.76085 0.540035 
-4.24446 9.39056 -0.900425 
-4.41188 9.32228 0.345271 
-3.12751 9.17914 0.802809 
-1.97847 9.21152 0.399094 
-2.08651 9.30972 -0.818626 
-3.19284 9.38013 -1.34241 
-3.92338 8.2511 -0.749895 
-4.02174 8.21623 0.311264 
-3.14423 8.10147 0.574323 
-2.29682 8.19572 0.350968 
-2.30487 8.26672 -0.63419 
-3.17381 8.25653 -1.04169 
-3.64869 5.43274 -0.397077 
-3.67067 5.42852 0.279941 
-3.1247 5.35143 0.413692 
-2.65588 5.39148 0.196719 
-2.64811 5.41305 -0.285271 
-3.13077 5.40356 -0.549896 
-3.68825 1.22084 -0.234499 
-3.69598 1.21113 0.274099 
-3.41281 1.17893 0.397122 
-3.1345 1.0217 0.239147 
-3.16013 1.04562 -0.126558 
-3.43875 1.19107 -0.365707 
-6.41322 17.8983 0.465813 
-5.85495 18.93 1.89024 
-8.17662 15.8988 1.89024 
-7.79018 16.3184 0.889769 
-7.13322 17.0482 0.418613 
-8.08619 19.498 0.665541 
-7.53583 20.4244 1.89024 
-9.01832 17.6309 1.89024 
-8.88303 18.0387 1.04368 
-8.54086 18.6825 0.602824 
-3.60241 5.98111 -0.381439 
-3.61769 5.95525 0.22186 
-3.11592 5.92185 0.389724 
-3.1066 5.77062 -0.519888 
-3.55261 4.88256 -0.372504 
-3.56956 4.88287 0.189077 
-3.13565 4.85912 0.338763 
-3.17127 5.01693 -0.50193 
-3.87609 0.798437 -0.354742 
-3.88427 0.808507 0.338604 
-3.46715 0.851512 0.4832 
-3.45032 0.866191 -0.468977 
-4.0511 0.32986 -0.386513 
-4.03327 0.335547 0.378095 
-3.5954 0.234779 0.502084 
-3.21262 0.15347 0.308306 
-3.21406 0.135602 -0.326703 
-3.63994 0.24585 -0.539109 
-4.28102 0.339239 -0.036073 
-3.10379 0.083069 0.011824 
-4.46586 -0.515091 -0.488005 
-4.6423 -0.505481 -0.114943 
-3.17073 -0.525265 -0.003827 
-3.25861 -0.513526 -0.36428 
-3.78695 -0.515845 -0.655365 
-4.48834 -0.494178 0.42502 
-3.77007 -0.523447 0.585618 
-3.26244 -0.537558 0.327251 
-3.89584 -0.531958 -0.03518 
-4.65395 -0.505244 0.019067 
-4.06373 0.804901 -0.024936 
-3.80987 1.23867 0.013254 
5.37176 0.666932 -0.538902 
5.35553 0.703058 0.055455 
5.80524 0.698787 0.170215 
5.75815 0.696397 -0.675729 
5.10032 0.247645 -0.527829 
5.005 0.246954 0.03997 
5.58021 0.184224 0.222384 
6.02716 0.110475 0.019825 
6.03649 0.115728 -0.517172 
5.53275 0.186314 -0.729764 
5.45854 1.08766 -0.237645 
5.24262 0.681566 -0.229143 
4.94416 0.247145 -0.217368 
5.28315 -0.623563 -0.228957 
6.08235 0.112724 -0.246335 
4.62848 -0.520356 -0.629677 
4.47232 -0.635256 -0.301197 
5.87696 -0.460599 -0.604431 
5.32719 -0.509257 -0.856673 
4.58546 -0.635688 0.151943 
5.29233 -0.623566 0.378879 
5.83153 -0.580363 0.12921 
5.9608 -0.451109 -0.243922 
4.46978 -0.635214 -0.118473 
8.88407 15.0575 0.935741 
9.01557 15.3522 1.89024 
9.28028 14.6081 1.22831 
9.4765 14.7566 1.89024 
9.30295 13.5854 1.32199 
9.06736 13.5185 1.89024 
9.60445 13.6926 1.43704 
9.74899 13.7896 1.89024 
9.22388 12.5357 1.51459 
9.06928 12.5288 1.89024 
9.50272 12.557 1.57548 
9.62437 12.5528 1.89024 
9.399 11.2423 1.68196 
9.3097 11.1274 1.89024 
9.54337 11.2918 1.73788 
9.62755 11.1801 1.89024 
-9.50699 18.2131 1.26719 
-7.68432 20.1732 1.11067 
-5.95549 18.6737 0.992636 
-9.84436 21.7832 0.973287 
-9.7566 21.4317 0.560686 
-8.87126 21.3141 0.654106 
-8.72774 21.5332 1.12829 
-9.59215 22.4172 0.786937 
-9.4118 22.2915 0.464442 
-9.02327 22.1561 0.328039 
-8.68128 22.0615 0.387032 
-8.7474 22.1593 0.848971 
-9.19217 22.4874 1.098 
-8.40945 22.8703 0.303707 
-8.45656 22.7198 0.072344 
-8.34468 22.4295 0.039834 
-8.1827 22.2514 0.239219 
-8.09311 22.3993 0.646031 
-8.27658 22.7977 0.632497 
-7.65853 23.2559 -0.019581 
-7.70392 23.1594 -0.24348 
-7.56354 22.9088 -0.317151 
-7.36493 22.7444 -0.156076 
-7.28264 22.8905 0.133157 
-7.54324 23.16 0.21181 
-6.9812 23.9863 -0.375801 
-6.92229 24.0757 -0.679242 
-6.86425 23.7862 -0.748372 
-6.63558 23.5758 -0.616454 
-6.60956 23.719 -0.392867 
-6.78845 23.9123 -0.281844 
-6.08276 25.4102 -1.68814 
-6.12918 25.377 -1.79057 
-6.08445 25.3119 -1.86561 
-5.99515 25.2583 -1.88798 
-5.91551 25.2618 -1.76596 
-5.95836 25.3394 -1.66722 
-9.06209 22.9766 0.525051 
-9.17554 22.7285 0.354242 
-10.1924 23.1492 0.67554 
-10.1545 23.1294 0.377224 
-9.94187 23.3586 0.273916 
-9.76107 23.5069 0.453018 
-9.84946 23.4705 0.733148 
-10.0541 23.3328 0.821217 
-10.5566 24.1647 0.490043 
-10.482 24.1389 0.329242 
-10.3071 24.1756 0.271493 
-10.2014 24.2306 0.399265 
-10.2373 24.24 0.575764 
-10.386 24.2161 0.627494 
-10.398 25.3566 0.456477 
-10.38 25.2862 0.381632 
-10.2947 25.2893 0.371394 
-10.2494 25.376 0.431741 
-10.2591 25.2979 0.526317 
-10.3458 25.3079 0.533444 
-7.17662 23.4013 -0.566879 
-7.36092 23.594 -0.483896 
-7.22587 23.7601 -0.305644 
-7.20632 24.2388 -1.1382 
-7.30662 24.2902 -1.0299 
-7.44245 24.1381 -0.912451 
-7.52699 23.9987 -0.983615 
-7.43841 23.8937 -1.0936 
-7.19479 24.079 -1.20966 
-7.37538 24.9077 -1.88833 
-7.41134 24.8979 -1.78015 
-7.48605 24.869 -1.77252 
-7.49548 24.8501 -1.85548 
-7.46496 24.7612 -1.88044 
-7.38397 24.8035 -1.88507 
-6.37359 24.9381 -1.55368 
-6.30199 25.1091 -1.46741 
-6.5746 24.6438 -1.22527 
-6.52584 24.7837 -1.10357 
-6.6466 25.5477 -1.63707 
-6.54954 25.6257 -1.58122 
-6.51798 25.6329 -1.45762 
-6.60216 25.6147 -1.38015 
-6.70651 25.6038 -1.42766 
-6.75128 25.554 -1.5454 
-6.75438 26.4975 -1.49466 
-6.72119 26.5226 -1.47916 
-6.70065 26.5164 -1.43288 
-6.72639 26.5148 -1.41795 
-6.77429 26.531 -1.44294 
-6.7941 26.5008 -1.48365 
-6.33619 24.8916 -1.10364 
-6.19672 25.0173 -1.3103 
-9.01528 22.8308 0.894521 
-5.99735 26.044 -1.97706 
-6.0212 26.0292 -2.02157 
-5.99755 26.051 -2.07663 
-5.93808 25.9822 -2.06052 
-5.89705 25.9792 -2.00832 
-5.92801 26.0595 -1.98382 
-9.1434 21.3659 0.488449 
-9.27878 21.8901 1.3683 
-9.27093 21.7961 1.89024 
-9.06028 20.4339 0.367806 
-8.39296 20.4718 -0.099083 
-8.18572 20.562 0.183298 
-8.40425 21.5515 0.545786 
-8.72399 21.7187 0.409513 
-7.76676 21.0594 -0.522744 
-7.6417 21.1763 -0.29686 
-7.84415 21.7441 -0.03851 
-8.0512 21.8915 -0.115795 
-7.48715 21.6558 -0.671628 
-7.49276 21.7732 -0.643723 
-4.56823 17.7456 0.761232 
-12.3574 19.2569 1.09432 
-13.2314 19.176 2.36838 
-13.0351 19.1047 2.42792 
-12.347 19.0835 2.64105 
-11.5732 18.9086 2.81772 
-10.8051 18.6702 2.97602 
-10.037 18.5485 3.04971 
-9.38405 18.4733 2.96024 
-13.331 19.1145 2.13896 
-13.13 18.9817 2.14004 
-12.3636 18.9107 2.2351 
-11.5695 18.6864 2.34861 
-10.8025 18.384 2.43171 
-10.0751 18.2392 2.45142 
-13.3151 19.8112 2.29227 
-13.1028 19.8631 2.36597 
-12.3681 20.1079 2.52803 
-11.5909 20.486 2.71205 
-10.8642 20.8866 2.90011 
-13.3482 19.9298 2.14538 
-13.1385 20.0011 2.17042 
-12.3813 20.3634 2.28781 
-11.6002 20.8769 2.46572 
-10.8841 21.4298 2.65387 
-13.2501 19.4242 2.41345 
-13.0322 19.4039 2.49674 
-12.3564 19.4732 2.75111 
-11.5525 19.4443 2.99805 
-10.7992 19.3957 3.22798 
-9.94286 19.309 3.4488 
-9.14427 19.1998 3.33678 
-13.3951 19.4032 2.16293 
-13.289 19.6688 2.38187 
-13.0682 19.6455 2.46214 
-12.3582 19.7755 2.7142 
-11.5623 19.9786 2.94099 
-10.8163 20.1223 3.12744 
-9.91286 20.2982 3.44542 
-8.59235 20.4748 3.23957 
-13.4289 19.7355 2.1398 
-13.3364 19.3081 2.16298 
-13.2226 19.306 2.39346 
-13.0359 19.266 2.4656 
-4.39691 10.5888 4.74464 
-3.25076 10.6529 5.25514 
-1.88657 10.6536 4.71238 
1.62703 10.5918 4.39541 
4.63978 10.7985 4.1269 
6.2419 10.6296 5.1658 
8.21038 10.6365 4.3804 
-4.57942 10.3788 3.43753 
-3.07413 9.8854 2.86886 
-1.8101 10.0196 3.33782 
1.69559 9.75965 3.30336 
4.44774 9.75514 3.04337 
6.19743 9.92091 2.47718 
8.51382 10.6407 2.90987 
-3.04067 16.4154 4.37503 
-1.11613 15.8365 4.30064 
1.62174 15.6693 4.32718 
4.67551 15.6124 4.22532 
6.68048 15.5589 4.40157 
-4.87196 16.7082 3.86078 
-2.89833 17.4745 3.26548 
-1.00607 16.8696 3.24494 
1.65048 16.5278 3.30872 
4.58573 16.7098 3.27554 
6.73967 16.5061 3.41073 
8.33512 15.5772 3.08954 
-4.8378 12.4802 4.78877 
-3.30193 12.4184 5.47043 
-1.5898 12.3539 5.10312 
1.58713 12.2878 5.1172 
4.73698 12.2463 4.61369 
6.43163 12.3094 5.31359 
8.5514 12.3006 4.35784 
9.1328 12.3543 2.83039 
-5.87485 12.5134 3.44305 
-5.31169 14.8878 4.29058 
-3.24658 14.5633 5.15622 
-1.2941 14.3374 4.9263 
1.58595 14.1908 5.05222 
4.77407 14.0756 4.79914 
6.56015 14.1393 4.99646 
8.35107 14.1639 4.22793 
9.19706 14.2103 2.83754 
4.71316 8.74916 4.41554 
4.69612 8.62166 3.17666 
6.15155 8.70645 2.83239 
7.3143 8.77491 3.29939 
7.28571 8.77403 4.34412 
6.03587 8.76093 4.9761 
5.11046 7.06832 4.27826 
5.13506 7.06734 3.33162 
6.07604 7.07013 3.09201 
6.94776 7.08178 3.43515 
6.9277 7.08169 4.21537 
6.0476 7.06861 4.63006 
5.84485 5.40236 4.15808 
5.85716 5.40033 3.60156 
6.24485 5.39886 3.27112 
7.1742 5.48556 3.55882 
7.16773 5.49354 4.1438 
6.33013 5.4354 4.39074 
5.5774 1.07194 4.2402 
5.50499 1.10198 3.8005 
5.84518 1.0298 3.69249 
6.04965 0.858329 3.83563 
6.11549 0.847615 4.18897 
5.85923 1.00255 4.37856 
6.35553 4.99482 4.34317 
6.897 4.82516 4.07526 
6.90878 4.84862 3.60524 
6.27081 4.91162 3.34224 
6.26145 5.86425 4.4259 
7.06599 6.05796 4.14002 
7.06781 6.04333 3.53448 
6.22116 5.76085 3.24045 
-4.24446 9.39056 4.68091 
-4.41188 9.32228 3.43521 
-3.12751 9.17914 2.97767 
-1.97847 9.21152 3.38139 
-2.08651 9.30972 4.59911 
-3.19284 9.38013 5.1229 
-3.92338 8.2511 4.53038 
-4.02174 8.21623 3.46922 
-3.14423 8.10147 3.20616 
-2.29682 8.19573 3.42952 
-2.30487 8.26672 4.41467 
-3.17381 8.25653 4.82218 
-3.64869 5.43274 4.17756 
-3.67067 5.42852 3.50054 
-3.1247 5.35143 3.36679 
-2.65588 5.39148 3.58377 
-2.64811 5.41305 4.06575 
-3.13077 5.40356 4.33038 
-3.68825 1.22084 4.01498 
-3.69598 1.21113 3.50639 
-3.41281 1.17893 3.38336 
-3.1345 1.0217 3.54134 
-3.16013 1.04562 3.90704 
-3.43875 1.19107 4.14619 
-6.41322 17.8983 3.31467 
-7.79018 16.3184 2.89072 
-7.13322 17.0482 3.36187 
-8.08619 19.498 3.11494 
-8.88303 18.0387 2.73681 
-8.54086 18.6825 3.17766 
-3.60241 5.98111 4.16192 
-3.61769 5.95525 3.55862 
-3.11592 5.92185 3.39076 
-3.1066 5.77062 4.30037 
-3.55261 4.88256 4.15299 
-3.56956 4.88287 3.59141 
-3.13565 4.85912 3.44172 
-3.17127 5.01693 4.28241 
-3.87609 0.798438 4.13523 
-3.88427 0.808508 3.44188 
-3.46715 0.851513 3.29728 
-3.45032 0.866192 4.24946 
-4.05111 0.329861 4.167 
-4.03327 0.335548 3.40239 
-3.5954 0.23478 3.2784 
-3.21262 0.153471 3.47218 
-3.21406 0.135604 4.10719 
-3.63994 0.245851 4.31959 
-4.28102 0.33924 3.81656 
-3.10379 0.08307 3.76866 
-4.46586 -0.51509 4.26849 
-4.6423 -0.50548 3.89543 
-3.17073 -0.525264 3.78431 
-3.25861 -0.513525 4.14476 
-3.78695 -0.515844 4.43585 
-4.48834 -0.494177 3.35546 
-3.77007 -0.523446 3.19487 
-3.26244 -0.537557 3.45323 
-3.89584 -0.531957 3.81567 
-4.65395 -0.505243 3.76142 
-4.06373 0.804902 3.80542 
-3.80987 1.23868 3.76723 
5.37176 0.666934 4.31939 
5.35553 0.703059 3.72503 
5.80524 0.698788 3.61027 
5.75815 0.696398 4.45621 
5.10032 0.247646 4.30831 
5.005 0.246955 3.74051 
5.58021 0.184225 3.5581 
6.02716 0.110476 3.76066 
6.03649 0.11573 4.29766 
5.53275 0.186314 4.51025 
5.45854 1.08766 4.01813 
5.24262 0.681567 4.00963 
4.94416 0.247146 3.99785 
5.28315 -0.509209 4.00944 
6.08235 0.112726 4.02682 
4.62848 -0.520355 4.41016 
4.47232 -0.5209 4.08168 
5.87696 -0.574952 4.38492 
5.32719 -0.509256 4.63716 
4.58546 -0.521333 3.62854 
5.29233 -0.509211 3.40161 
5.83153 -0.580363 3.65127 
5.9608 -0.565463 4.02441 
4.46978 -0.520859 3.89896 
8.88407 15.0575 2.84474 
9.28028 14.6081 2.55218 
9.30295 13.5854 2.4585 
9.60445 13.6926 2.34345 
9.22388 12.5357 2.2659 
9.50272 12.557 2.205 
9.399 11.2423 2.09853 
9.54337 11.2918 2.0426 
-9.50699 18.2131 2.5133 
-7.68432 20.1732 2.66982 
-5.95549 18.6737 2.78785 
-9.84436 21.7832 2.8072 
-9.7566 21.4317 3.2198 
-8.87126 21.3141 3.12638 
-8.72774 21.5332 2.65219 
-9.59215 22.4172 2.99355 
-9.4118 22.2915 3.31604 
-9.02327 22.1561 3.45245 
-8.68128 22.0615 3.39345 
-8.7474 22.1593 2.93151 
-9.19217 22.4874 2.68249 
-8.40945 22.8702 3.47678 
-8.45656 22.7198 3.70814 
-8.34468 22.4295 3.74065 
-8.1827 22.2514 3.54127 
-8.09311 22.3993 3.13445 
-8.27658 22.7977 3.14799 
-7.53734 23.2559 3.80007 
-7.58273 23.1594 4.02396 
-7.44236 22.9088 4.09763 
-7.24374 22.7444 3.93656 
-7.16145 22.8905 3.64733 
-7.42205 23.16 3.56868 
-6.8213 23.9863 4.20462 
-6.7704 24.0404 4.43828 
-6.71066 23.7425 4.50942 
-6.47567 23.5758 4.40164 
-6.44965 23.719 4.17335 
-6.62854 23.9123 4.11067 
-5.90649 25.4137 5.38086 
-5.95426 25.3795 5.48627 
-5.90824 25.3125 5.56348 
-5.81635 25.2574 5.5865 
-5.73439 25.2609 5.46094 
-5.77848 25.3408 5.35934 
-9.06209 22.9766 3.25543 
-9.17554 22.7285 3.42624 
-10.1924 23.1492 3.08269 
-10.1545 23.1294 3.38022 
-9.94187 23.3586 3.48037 
-9.76107 23.5069 3.30029 
-9.84946 23.4705 3.02029 
-10.0541 23.3328 2.93422 
-10.5566 24.1647 3.21578 
-10.482 24.1389 3.37683 
-10.3071 24.1756 3.43417 
-10.2014 24.2306 3.3059 
-10.2373 24.24 3.1291 
-10.386 24.2161 3.07779 
-10.398 24.9508 3.21714 
-10.38 24.8804 3.29199 
-10.2947 24.8834 3.30223 
-10.2494 24.9702 3.24188 
-10.2591 24.892 3.14731 
-10.3458 24.902 3.14018 
-7.01672 23.4013 4.35207 
-7.20101 23.594 4.26909 
-7.06596 23.7601 4.08613 
-7.06266 24.2082 4.91056 
-7.16588 24.2612 4.79912 
-7.30565 24.1047 4.67826 
-7.39264 23.9612 4.75149 
-7.30149 23.8532 4.86467 
-7.05081 24.0438 4.98409 
-7.23664 24.6373 5.48776 
-7.27364 24.6271 5.37644 
-7.35051 24.5974 5.36859 
-7.36022 24.578 5.45396 
-7.32881 24.4865 5.47965 
-7.24547 24.53 5.4844 
-6.26109 24.8265 5.3381 
-6.1874 25.0025 5.15373 
-6.41261 24.625 4.94246 
-6.36244 24.769 4.81722 
-6.4867 25.5551 5.32831 
-6.38682 25.6355 5.27084 
-6.35435 25.6429 5.14365 
-6.44097 25.6241 5.06394 
-6.54835 25.6128 5.11282 
-6.59442 25.5617 5.23398 
-6.49793 26.7166 5.32581 
-6.46378 26.7423 5.30987 
-6.44264 26.736 5.26224 
-6.46913 26.7343 5.24688 
-6.51842 26.751 5.27259 
-6.53881 26.72 5.31448 
-6.16728 24.88 4.8173 
-6.07908 24.908 5.08765 
-9.01528 22.8308 2.88596 
-5.8186 26.0658 5.95578 
-5.84315 26.0506 6.00158 
-5.81882 26.073 6.05823 
-5.75762 26.0023 6.04167 
-5.7154 25.9991 5.98795 
-5.74725 26.0818 5.96273 
-9.14339 21.3659 3.29204 
-9.27878 21.8901 2.41218 
-9.06028 20.4339 3.41268 
-8.39296 20.4718 3.87957 
-8.18572 20.562 3.59719 
-8.40425 21.5515 3.2347 
-8.72399 21.7187 3.37097 
-7.76676 21.0594 4.30323 
-7.6417 21.1763 4.07734 
-7.84415 21.7441 3.81899 
-8.0512 21.8915 3.89628 
-7.48715 21.6558 4.45211 
-7.49276 21.7732 4.42421 
-4.56823 17.7456 3.01925 
-12.3574 19.2569 2.68616 
3 0 7 8 
3 8 1 0 
3 1 8 9 
3 9 2 1 
3 2 9 10 
3 10 3 2 
3 3 10 11 
3 11 4 3 
3 4 11 12 
3 12 5 4 
3 5 12 257 
3 257 6 5 
3 7 13 14 
3 14 8 7 
3 8 14 15 
3 15 9 8 
3 9 15 16 
3 16 10 9 
3 10 16 17 
3 17 11 10 
3 11 17 18 
3 18 12 11 
3 12 18 19 
3 19 257 12 
3 20 21 26 
3 26 25 20 
3 21 22 27 
3 27 26 21 
3 22 23 28 
3 28 27 22 
3 23 24 29 
3 29 28 23 
3 29 261 260 
3 261 29 24 
3 25 26 31 
3 31 30 25 
3 26 27 32 
3 32 31 26 
3 27 28 33 
3 33 32 27 
3 28 29 34 
3 34 33 28 
3 29 260 35 
3 35 34 29 
3 355 356 35 
3 35 260 355 
3 38 37 57 
3 57 58 38 
3 369 39 38 
3 38 58 369 
3 369 3 40 
3 40 39 369 
3 2 3 369 
3 3 4 41 
3 41 40 3 
3 4 5 42 
3 42 41 4 
3 5 6 43 
3 43 42 5 
3 37 38 47 
3 47 46 37 
3 38 39 48 
3 48 47 38 
3 39 40 49 
3 49 48 39 
3 40 41 50 
3 50 49 40 
3 41 42 51 
3 51 50 41 
3 357 43 52 
3 42 43 357 
3 42 357 51 
3 46 47 21 
3 21 20 46 
3 47 48 22 
3 22 21 47 
3 48 49 23 
3 23 22 48 
3 49 50 24 
3 24 23 49 
3 50 51 261 
3 261 24 50 
3 56 45 44 
3 44 55 56 
3 57 37 45 
3 45 56 57 
3 44 45 54 
3 54 53 44 
3 45 37 46 
3 46 54 45 
3 53 54 25 
3 25 30 53 
3 54 46 20 
3 20 25 54 
3 55 13 7 
3 7 56 55 
3 56 7 0 
3 0 57 56 
3 0 1 58 
3 58 57 0 
3 205 206 213 
3 213 209 205 
3 213 207 208 
3 208 209 213 
3 61 68 69 
3 69 62 61 
3 63 62 70 
3 69 70 62 
3 232 233 230 
3 230 235 232 
3 230 239 234 
3 234 235 230 
3 73 67 66 
3 67 73 74 
3 68 67 75 
3 74 75 67 
3 76 68 75 
3 68 76 69 
3 70 69 77 
3 76 77 69 
3 71 77 78 
3 77 71 70 
3 71 78 79 
3 79 72 71 
3 86 93 92 
3 92 368 86 
3 80 81 87 
3 87 86 80 
3 81 82 88 
3 88 87 81 
3 82 83 89 
3 89 88 82 
3 83 84 90 
3 90 89 83 
3 90 84 91 
3 116 91 84 
3 86 87 94 
3 94 93 86 
3 94 87 95 
3 88 95 87 
3 95 88 96 
3 89 96 88 
3 97 89 90 
3 89 97 96 
3 97 90 98 
3 91 98 90 
3 100 59 60 
3 59 100 99 
3 100 60 61 
3 61 101 100 
3 102 101 62 
3 61 62 101 
3 62 63 103 
3 103 102 62 
3 103 63 104 
3 64 104 63 
3 104 64 65 
3 65 105 104 
3 110 99 111 
3 100 111 99 
3 111 101 112 
3 101 111 100 
3 101 102 113 
3 113 112 101 
3 113 103 114 
3 103 113 102 
3 114 104 115 
3 104 114 103 
3 115 105 116 
3 105 115 104 
3 110 111 80 
3 80 85 110 
3 80 112 81 
3 112 80 111 
3 81 113 82 
3 113 81 112 
3 113 114 83 
3 83 82 113 
3 114 115 84 
3 84 83 114 
3 115 116 84 
3 65 72 106 
3 106 105 65 
3 72 79 107 
3 107 106 72 
3 117 116 105 
3 105 106 117 
3 106 107 118 
3 118 117 106 
3 116 117 241 
3 241 91 116 
3 242 98 91 
3 91 241 242 
3 108 73 66 
3 66 109 108 
3 109 66 99 
3 59 99 66 
3 109 99 110 
3 63 70 120 
3 120 119 63 
3 70 71 121 
3 121 120 70 
3 71 72 122 
3 122 121 71 
3 72 65 123 
3 123 122 72 
3 123 65 64 
3 64 124 123 
3 119 64 63 
3 64 119 124 
3 119 120 126 
3 126 125 119 
3 120 121 127 
3 127 126 120 
3 121 122 128 
3 128 127 121 
3 122 123 129 
3 129 128 122 
3 123 124 130 
3 130 129 123 
3 130 119 125 
3 119 130 124 
3 125 126 132 
3 132 131 125 
3 126 127 150 
3 150 132 126 
3 128 149 150 
3 150 127 128 
3 129 148 149 
3 149 128 129 
3 129 130 147 
3 147 148 129 
3 130 125 131 
3 131 147 130 
3 131 132 138 
3 131 138 227 
3 131 227 137 
3 132 133 146 
3 134 145 146 
3 146 133 134 
3 134 144 145 
3 144 134 135 
3 135 136 143 
3 143 144 135 
3 136 131 143 
3 137 142 143 
3 143 131 137 
3 142 141 144 
3 144 143 142 
3 145 141 140 
3 141 145 144 
3 145 140 139 
3 139 146 145 
3 138 146 139 
3 146 138 132 
3 131 136 147 
3 147 136 135 
3 135 148 147 
3 149 135 134 
3 135 149 148 
3 134 133 150 
3 150 149 134 
3 150 133 132 
3 151 59 152 
3 66 152 59 
3 152 67 153 
3 67 152 66 
3 67 68 154 
3 154 153 67 
3 68 61 155 
3 155 154 68 
3 155 60 156 
3 60 155 61 
3 60 59 151 
3 151 156 60 
3 151 152 158 
3 158 157 151 
3 152 153 159 
3 159 158 152 
3 159 153 160 
3 154 160 153 
3 154 155 161 
3 161 160 154 
3 161 155 162 
3 156 162 155 
3 162 151 157 
3 151 162 156 
3 158 186 185 
3 185 157 158 
3 158 187 186 
3 187 158 159 
3 187 159 160 
3 160 166 187 
3 166 161 167 
3 161 166 160 
3 167 161 188 
3 162 188 161 
3 162 185 188 
3 185 162 157 
3 164 190 189 
3 189 163 164 
3 165 191 190 
3 190 164 165 
3 166 191 165 
3 168 192 167 
3 163 189 192 
3 192 168 163 
3 92 176 259 
3 259 368 92 
3 178 108 109 
3 108 178 177 
3 178 109 110 
3 110 179 178 
3 179 85 175 
3 85 179 110 
3 176 181 258 
3 258 259 176 
3 182 177 183 
3 178 183 177 
3 178 179 184 
3 184 183 178 
3 179 175 180 
3 180 184 179 
3 164 163 185 
3 185 186 164 
3 187 165 164 
3 164 186 187 
3 166 165 187 
3 188 168 167 
3 163 168 188 
3 188 185 163 
3 190 170 216 
3 189 216 169 
3 190 216 189 
3 190 171 170 
3 171 190 191 
3 172 171 191 
3 191 166 172 
3 173 172 166 
3 166 167 173 
3 167 174 173 
3 174 167 192 
3 189 169 174 
3 174 192 189 
3 215 170 194 
3 170 215 216 
3 170 171 195 
3 195 194 170 
3 172 195 171 
3 173 174 196 
3 196 169 193 
3 169 196 174 
3 215 194 198 
3 198 203 215 
3 194 195 199 
3 199 198 194 
3 195 172 200 
3 200 199 195 
3 204 173 201 
3 172 173 204 
3 172 204 200 
3 201 196 202 
3 196 201 173 
3 202 193 197 
3 193 202 196 
3 210 211 213 
3 213 214 210 
3 213 211 212 
3 212 207 213 
3 197 203 206 
3 206 205 197 
3 203 213 206 
3 204 201 208 
3 208 207 204 
3 201 202 209 
3 209 208 201 
3 202 197 205 
3 205 209 202 
3 198 199 211 
3 211 210 198 
3 199 200 212 
3 212 211 199 
3 200 204 207 
3 207 212 200 
3 203 214 213 
3 203 198 210 
3 210 214 203 
3 203 197 193 
3 193 215 203 
3 215 193 169 
3 169 216 215 
3 227 228 217 
3 217 137 227 
3 138 139 219 
3 219 218 138 
3 140 219 139 
3 141 142 220 
3 142 137 217 
3 217 220 142 
3 228 229 221 
3 221 217 228 
3 218 219 223 
3 223 222 218 
3 219 140 224 
3 224 223 219 
3 231 141 225 
3 140 141 231 
3 140 231 224 
3 225 220 226 
3 220 225 141 
3 226 217 221 
3 217 226 220 
3 138 218 228 
3 228 227 138 
3 218 222 229 
3 229 228 218 
3 236 237 230 
3 230 240 236 
3 230 237 238 
3 238 239 230 
3 221 229 233 
3 233 232 221 
3 229 230 233 
3 231 225 234 
3 234 239 231 
3 225 226 235 
3 235 234 225 
3 226 221 232 
3 232 235 226 
3 222 223 237 
3 237 236 222 
3 223 224 238 
3 238 237 223 
3 224 231 239 
3 239 238 224 
3 230 229 240 
3 229 222 236 
3 236 240 229 
3 241 117 243 
3 244 242 243 
3 241 243 242 
3 117 118 246 
3 246 245 117 
3 247 117 245 
3 117 247 243 
3 248 244 247 
3 243 247 244 
3 249 246 250 
3 246 249 245 
3 251 245 249 
3 245 251 247 
3 251 252 247 
3 248 247 252 
3 249 250 254 
3 254 253 249 
3 251 249 253 
3 253 255 251 
3 256 252 255 
3 251 255 252 
3 253 254 256 
3 256 255 253 
3 181 36 263 
3 263 258 181 
3 183 6 257 
3 6 184 43 
3 184 6 183 
3 263 262 52 
3 52 180 258 
3 257 19 182 
3 182 183 257 
3 180 43 184 
3 43 180 52 
3 180 175 259 
3 259 258 180 
3 265 264 260 
3 260 261 265 
3 266 265 261 
3 261 354 266 
3 267 266 354 
3 354 262 267 
3 268 267 262 
3 262 263 268 
3 269 268 263 
3 263 355 269 
3 264 269 355 
3 355 260 264 
3 271 270 294 
3 294 295 271 
3 271 266 272 
3 266 271 295 
3 265 266 295 
3 273 272 266 
3 266 267 273 
3 274 273 267 
3 267 268 274 
3 268 269 347 
3 268 347 275 
3 268 275 274 
3 294 275 347 
3 275 294 270 
3 277 276 270 
3 270 271 277 
3 278 277 271 
3 271 272 278 
3 279 278 272 
3 272 273 279 
3 280 279 273 
3 273 274 280 
3 281 280 274 
3 274 275 281 
3 276 281 275 
3 275 270 276 
3 277 315 316 
3 316 276 277 
3 278 314 315 
3 315 277 278 
3 278 279 285 
3 285 284 314 
3 278 285 314 
3 286 285 279 
3 279 280 286 
3 281 287 280 
3 286 280 287 
3 281 276 316 
3 287 316 282 
3 281 316 287 
3 283 331 332 
3 332 282 283 
3 329 290 289 
3 284 290 329 
3 283 284 331 
3 331 284 329 
3 291 290 284 
3 284 285 291 
3 292 291 285 
3 285 286 292 
3 286 287 345 
3 286 345 346 
3 286 346 293 
3 286 293 292 
3 282 332 345 
3 345 287 282 
3 348 349 350 
3 350 353 348 
3 313 308 311 
3 311 312 313 
3 311 308 309 
3 309 310 311 
3 264 265 297 
3 297 296 264 
3 265 295 298 
3 298 297 265 
3 298 294 299 
3 294 298 295 
3 299 347 300 
3 347 299 294 
3 300 347 301 
3 269 301 347 
3 301 264 296 
3 264 301 269 
3 296 297 303 
3 303 302 296 
3 297 298 304 
3 304 303 297 
3 298 299 305 
3 305 304 298 
3 299 300 306 
3 306 305 299 
3 300 301 307 
3 307 306 300 
3 301 296 302 
3 302 307 301 
3 302 303 309 
3 309 308 302 
3 303 304 310 
3 310 309 303 
3 304 305 311 
3 311 310 304 
3 305 306 312 
3 312 311 305 
3 306 307 313 
3 313 312 306 
3 307 302 308 
3 308 313 307 
3 327 328 323 
3 323 326 327 
3 326 323 324 
3 324 325 326 
3 283 282 318 
3 318 317 283 
3 282 316 319 
3 319 318 282 
3 316 315 320 
3 320 319 316 
3 315 314 321 
3 321 320 315 
3 314 284 322 
3 322 321 314 
3 284 283 317 
3 317 322 284 
3 317 318 324 
3 324 323 317 
3 318 319 325 
3 325 324 318 
3 319 320 326 
3 326 325 319 
3 320 321 327 
3 327 326 320 
3 321 322 328 
3 328 327 321 
3 322 317 323 
3 323 328 322 
3 289 288 330 
3 289 330 329 
3 288 293 346 
3 346 330 288 
3 339 340 343 
3 343 344 339 
3 340 341 342 
3 342 343 340 
3 329 330 334 
3 334 333 329 
3 330 346 335 
3 335 334 330 
3 346 345 336 
3 336 335 346 
3 345 332 337 
3 337 336 345 
3 332 331 338 
3 338 337 332 
3 331 329 333 
3 333 338 331 
3 333 334 340 
3 340 339 333 
3 334 335 341 
3 341 340 334 
3 335 336 342 
3 342 341 335 
3 336 337 343 
3 343 342 336 
3 337 338 344 
3 344 343 337 
3 338 333 339 
3 339 344 338 
3 351 352 353 
3 353 350 351 
3 288 289 349 
3 349 348 288 
3 289 290 350 
3 350 349 289 
3 290 291 351 
3 351 350 290 
3 291 292 352 
3 352 351 291 
3 292 293 353 
3 353 352 292 
3 293 288 348 
3 348 353 293 
3 355 263 36 
3 36 356 355 
3 354 261 51 
3 51 357 354 
3 358 52 359 
3 52 358 357 
3 52 262 360 
3 360 359 52 
3 262 354 361 
3 361 360 262 
3 354 357 358 
3 358 361 354 
3 358 359 363 
3 363 362 358 
3 359 360 364 
3 364 363 359 
3 360 361 365 
3 365 364 360 
3 361 358 362 
3 362 365 361 
3 362 363 366 
3 366 364 367 
3 364 366 363 
3 365 367 364 
3 365 362 366 
3 366 367 365 
3 259 175 85 
3 85 368 259 
3 86 368 85 
3 85 80 86 
3 58 1 2 
3 2 369 58 
3 52 258 263 
3 370 378 377 
3 378 370 371 
3 371 379 378 
3 379 371 372 
3 372 380 379 
3 380 372 373 
3 373 381 380 
3 381 373 374 
3 374 382 381 
3 382 374 375 
3 375 581 382 
3 581 375 376 
3 377 14 13 
3 14 377 378 
3 378 15 14 
3 15 378 379 
3 379 16 15 
3 16 379 380 
3 380 17 16 
3 17 380 381 
3 381 18 17 
3 18 381 382 
3 382 19 18 
3 19 382 581 
3 383 389 384 
3 389 383 388 
3 384 390 385 
3 390 384 389 
3 385 391 386 
3 391 385 390 
3 386 392 387 
3 392 386 391 
3 392 584 585 
3 585 387 392 
3 388 31 389 
3 31 388 30 
3 389 32 390 
3 32 389 31 
3 390 33 391 
3 33 390 32 
3 391 34 392 
3 34 391 33 
3 392 35 584 
3 35 392 34 
3 679 35 356 
3 35 679 584 
3 394 410 393 
3 410 394 411 
3 692 394 395 
3 394 692 411 
3 692 396 373 
3 396 692 395 
3 372 692 373 
3 373 397 374 
3 397 373 396 
3 374 398 375 
3 398 374 397 
3 375 399 376 
3 399 375 398 
3 393 402 394 
3 402 393 401 
3 394 403 395 
3 403 394 402 
3 395 404 396 
3 404 395 403 
3 396 405 397 
3 405 396 404 
3 397 406 398 
3 406 397 405 
3 680 407 399 
3 398 680 399 
3 398 406 680 
3 401 384 402 
3 384 401 383 
3 402 385 403 
3 385 402 384 
3 403 386 404 
3 386 403 385 
3 404 387 405 
3 387 404 386 
3 405 585 406 
3 585 405 387 
3 409 44 400 
3 44 409 55 
3 410 400 393 
3 400 410 409 
3 44 408 400 
3 408 44 53 
3 400 401 393 
3 401 400 408 
3 53 388 408 
3 388 53 30 
3 408 383 401 
3 383 408 388 
3 55 377 13 
3 377 55 409 
3 409 370 377 
3 370 409 410 
3 370 411 371 
3 411 370 410 
3 537 545 538 
3 545 537 541 
3 545 540 539 
3 540 545 541 
3 414 422 421 
3 422 414 415 
3 416 423 415 
3 422 415 423 
3 564 562 565 
3 562 564 567 
3 562 566 571 
3 566 562 567 
3 73 419 420 
3 420 74 73 
3 421 75 420 
3 74 420 75 
3 76 75 421 
3 421 422 76 
3 423 77 422 
3 76 422 77 
3 424 78 77 
3 77 423 424 
3 424 79 78 
3 79 424 425 
3 432 92 93 
3 92 432 691 
3 426 433 427 
3 433 426 432 
3 427 434 428 
3 434 427 433 
3 428 435 429 
3 435 428 434 
3 429 436 430 
3 436 429 435 
3 436 437 430 
3 453 430 437 
3 432 94 433 
3 94 432 93 
3 94 95 433 
3 434 433 95 
3 95 96 434 
3 435 434 96 
3 97 436 435 
3 435 96 97 
3 97 98 436 
3 437 436 98 
3 439 413 412 
3 412 438 439 
3 439 414 413 
3 414 439 440 
3 441 415 440 
3 414 440 415 
3 415 442 416 
3 442 415 441 
3 442 443 416 
3 417 416 443 
3 443 418 417 
3 418 443 444 
3 447 448 438 
3 439 438 448 
3 448 449 440 
3 440 439 448 
3 440 450 441 
3 450 440 449 
3 450 451 442 
3 442 441 450 
3 451 452 443 
3 443 442 451 
3 452 453 444 
3 444 443 452 
3 447 426 448 
3 426 447 431 
3 426 427 449 
3 449 448 426 
3 427 428 450 
3 450 449 427 
3 450 429 451 
3 429 450 428 
3 451 430 452 
3 430 451 429 
3 452 430 453 
3 418 445 425 
3 445 418 444 
3 425 107 79 
3 107 425 445 
3 454 444 453 
3 444 454 445 
3 445 118 107 
3 118 445 454 
3 453 573 454 
3 573 453 437 
3 242 437 98 
3 437 242 573 
3 108 419 73 
3 419 108 446 
3 446 438 419 
3 412 419 438 
3 446 447 438 
3 416 456 423 
3 456 416 455 
3 423 457 424 
3 457 423 456 
3 424 458 425 
3 458 424 457 
3 425 459 418 
3 459 425 458 
3 459 417 418 
3 417 459 460 
3 455 416 417 
3 417 460 455 
3 455 462 456 
3 462 455 461 
3 456 463 457 
3 463 456 462 
3 457 464 458 
3 464 457 463 
3 458 465 459 
3 465 458 464 
3 459 466 460 
3 466 459 465 
3 466 461 455 
3 455 460 466 
3 461 468 462 
3 468 461 467 
3 462 486 463 
3 486 462 468 
3 464 486 485 
3 486 464 463 
3 465 485 484 
3 485 465 464 
3 465 483 466 
3 483 465 484 
3 466 467 461 
3 467 466 483 
3 467 474 468 
3 467 559 474 
3 467 473 559 
3 468 482 469 
3 470 482 481 
3 482 470 469 
3 470 481 480 
3 480 471 470 
3 471 479 472 
3 479 471 480 
3 472 479 467 
3 473 479 478 
3 479 473 467 
3 478 480 477 
3 480 478 479 
3 481 476 477 
3 477 480 481 
3 481 475 476 
3 475 481 482 
3 474 475 482 
3 482 468 474 
3 467 483 472 
3 483 471 472 
3 471 483 484 
3 485 470 471 
3 471 484 485 
3 470 486 469 
3 486 470 485 
3 486 468 469 
3 487 488 412 
3 419 412 488 
3 488 489 420 
3 420 419 488 
3 420 490 421 
3 490 420 489 
3 421 491 414 
3 491 421 490 
3 491 492 413 
3 413 414 491 
3 413 487 412 
3 487 413 492 
3 487 494 488 
3 494 487 493 
3 488 495 489 
3 495 488 494 
3 495 496 489 
3 490 489 496 
3 490 497 491 
3 497 490 496 
3 497 498 491 
3 492 491 498 
3 498 493 487 
3 487 492 498 
3 494 517 518 
3 517 494 493 
3 494 518 519 
3 519 495 494 
3 519 496 495 
3 496 519 502 
3 502 503 497 
3 497 496 502 
3 503 520 497 
3 498 497 520 
3 498 520 517 
3 517 493 498 
3 500 521 522 
3 521 500 499 
3 501 522 523 
3 522 501 500 
3 502 501 523 
3 504 503 524 
3 499 524 521 
3 524 499 504 
3 92 583 176 
3 583 92 691 
3 512 446 108 
3 108 177 512 
3 512 447 446 
3 447 512 513 
3 513 511 431 
3 431 447 513 
3 176 582 181 
3 582 176 583 
3 182 515 177 
3 512 177 515 
3 512 516 513 
3 516 512 515 
3 513 514 511 
3 514 513 516 
3 500 517 499 
3 517 500 518 
3 519 500 501 
3 500 519 518 
3 502 519 501 
3 520 503 504 
3 499 520 504 
3 520 499 517 
3 522 548 506 
3 521 505 548 
3 522 521 548 
3 522 506 507 
3 507 523 522 
3 508 523 507 
3 523 508 502 
3 509 502 508 
3 502 509 503 
3 503 509 510 
3 510 524 503 
3 521 510 505 
3 510 521 524 
3 547 526 506 
3 506 548 547 
3 506 527 507 
3 527 506 526 
3 508 507 527 
3 509 528 510 
3 528 525 505 
3 505 510 528 
3 547 530 526 
3 530 547 535 
3 526 531 527 
3 531 526 530 
3 527 532 508 
3 532 527 531 
3 536 533 509 
3 508 536 509 
3 508 532 536 
3 533 534 528 
3 528 509 533 
3 534 529 525 
3 525 528 534 
3 542 545 543 
3 545 542 546 
3 545 544 543 
3 544 545 539 
3 529 538 535 
3 538 529 537 
3 535 538 545 
3 536 540 533 
3 540 536 539 
3 533 541 534 
3 541 533 540 
3 534 537 529 
3 537 534 541 
3 530 543 531 
3 543 530 542 
3 531 544 532 
3 544 531 543 
3 532 539 536 
3 539 532 544 
3 535 545 546 
3 535 542 530 
3 542 535 546 
3 535 525 529 
3 525 535 547 
3 547 505 525 
3 505 547 548 
3 559 549 560 
3 549 559 473 
3 474 551 475 
3 551 474 550 
3 476 475 551 
3 477 552 478 
3 478 549 473 
3 549 478 552 
3 560 553 561 
3 553 560 549 
3 550 555 551 
3 555 550 554 
3 551 556 476 
3 556 551 555 
3 563 557 477 
3 476 563 477 
3 476 556 563 
3 557 558 552 
3 552 477 557 
3 558 553 549 
3 549 552 558 
3 474 560 550 
3 560 474 559 
3 550 561 554 
3 561 550 560 
3 568 562 569 
3 562 568 572 
3 562 570 569 
3 570 562 571 
3 553 565 561 
3 565 553 564 
3 561 565 562 
3 563 566 557 
3 566 563 571 
3 557 567 558 
3 567 557 566 
3 558 564 553 
3 564 558 567 
3 554 569 555 
3 569 554 568 
3 555 570 556 
3 570 555 569 
3 556 571 563 
3 571 556 570 
3 562 572 561 
3 561 568 554 
3 568 561 572 
3 573 574 454 
3 244 574 242 
3 573 242 574 
3 454 246 118 
3 246 454 575 
3 576 575 454 
3 454 574 576 
3 248 576 244 
3 574 244 576 
3 577 250 246 
3 246 575 577 
3 578 577 575 
3 575 576 578 
3 578 576 252 
3 248 252 576 
3 577 254 250 
3 254 577 579 
3 578 579 577 
3 579 578 580 
3 256 580 252 
3 578 252 580 
3 579 256 254 
3 256 579 580 
3 181 587 36 
3 587 181 582 
3 515 581 376 
3 376 399 516 
3 516 515 376 
3 587 407 586 
3 407 582 514 
3 581 182 19 
3 182 581 515 
3 514 516 399 
3 399 407 514 
3 514 583 511 
3 583 514 582 
3 589 584 588 
3 584 589 585 
3 590 585 589 
3 585 590 678 
3 591 678 590 
3 678 591 586 
3 592 586 591 
3 586 592 587 
3 593 587 592 
3 587 593 679 
3 588 679 593 
3 679 588 584 
3 595 618 594 
3 618 595 619 
3 595 596 590 
3 590 619 595 
3 589 619 590 
3 597 590 596 
3 590 597 591 
3 598 591 597 
3 591 598 592 
3 592 671 593 
3 592 599 671 
3 592 598 599 
3 618 671 599 
3 599 594 618 
3 601 594 600 
3 594 601 595 
3 602 595 601 
3 595 602 596 
3 603 596 602 
3 596 603 597 
3 604 597 603 
3 597 604 598 
3 605 598 604 
3 598 605 599 
3 600 599 605 
3 599 600 594 
3 601 640 639 
3 640 601 600 
3 602 639 638 
3 639 602 601 
3 602 609 603 
3 609 638 608 
3 602 638 609 
3 610 603 609 
3 603 610 604 
3 605 604 611 
3 610 611 604 
3 605 640 600 
3 611 606 640 
3 605 611 640 
3 607 656 655 
3 656 607 606 
3 653 613 614 
3 608 653 614 
3 607 655 608 
3 655 653 608 
3 615 608 614 
3 608 615 609 
3 616 609 615 
3 609 616 610 
3 610 669 611 
3 610 670 669 
3 610 617 670 
3 610 616 617 
3 606 669 656 
3 669 606 611 
3 672 674 673 
3 674 672 677 
3 637 635 632 
3 635 637 636 
3 635 633 632 
3 633 635 634 
3 588 621 589 
3 621 588 620 
3 589 622 619 
3 622 589 621 
3 622 623 618 
3 618 619 622 
3 623 624 671 
3 671 618 623 
3 624 625 671 
3 593 671 625 
3 625 620 588 
3 588 593 625 
3 620 627 621 
3 627 620 626 
3 621 628 622 
3 628 621 627 
3 622 629 623 
3 629 622 628 
3 623 630 624 
3 630 623 629 
3 624 631 625 
3 631 624 630 
3 625 626 620 
3 626 625 631 
3 626 633 627 
3 633 626 632 
3 627 634 628 
3 634 627 633 
3 628 635 629 
3 635 628 634 
3 629 636 630 
3 636 629 635 
3 630 637 631 
3 637 630 636 
3 631 632 626 
3 632 631 637 
3 651 647 652 
3 647 651 650 
3 650 648 647 
3 648 650 649 
3 607 642 606 
3 642 607 641 
3 606 643 640 
3 643 606 642 
3 640 644 639 
3 644 640 643 
3 639 645 638 
3 645 639 644 
3 638 646 608 
3 646 638 645 
3 608 641 607 
3 641 608 646 
3 641 648 642 
3 648 641 647 
3 642 649 643 
3 649 642 648 
3 643 650 644 
3 650 643 649 
3 644 651 645 
3 651 644 650 
3 645 652 646 
3 652 645 651 
3 646 647 641 
3 647 646 652 
3 613 654 612 
3 613 653 654 
3 612 670 617 
3 670 612 654 
3 663 667 664 
3 667 663 668 
3 664 666 665 
3 666 664 667 
3 653 658 654 
3 658 653 657 
3 654 659 670 
3 659 654 658 
3 670 660 669 
3 660 670 659 
3 669 661 656 
3 661 669 660 
3 656 662 655 
3 662 656 661 
3 655 657 653 
3 657 655 662 
3 657 664 658 
3 664 657 663 
3 658 665 659 
3 665 658 664 
3 659 666 660 
3 666 659 665 
3 660 667 661 
3 667 660 666 
3 661 668 662 
3 668 661 667 
3 662 663 657 
3 663 662 668 
3 675 677 676 
3 677 675 674 
3 612 673 613 
3 673 612 672 
3 613 674 614 
3 674 613 673 
3 614 675 615 
3 675 614 674 
3 615 676 616 
3 676 615 675 
3 616 677 617 
3 677 616 676 
3 617 672 612 
3 672 617 677 
3 679 36 587 
3 36 679 356 
3 678 406 585 
3 406 678 680 
3 681 682 407 
3 407 680 681 
3 407 683 586 
3 683 407 682 
3 586 684 678 
3 684 586 683 
3 678 681 680 
3 681 678 684 
3 681 686 682 
3 686 681 685 
3 682 687 683 
3 687 682 686 
3 683 688 684 
3 688 683 687 
3 684 685 681 
3 685 684 688 
3 685 689 686 
3 689 690 687 
3 687 686 689 
3 688 687 690 
3 688 689 685 
3 689 688 690 
3 583 431 511 
3 431 583 691 
3 432 431 691 
3 431 432 426 
3 411 372 371 
3 372 411 692 
3 407 587 582 
